<svg width="24" height="37" viewBox="0 0 14 27" fill="none" xmlns="http://www.w3.org/2000/svg">
<g clip-path="url(#clip0)">
<path d="M7 12.7617C5.61553 12.7617 4.26216 13.1792 3.11101 13.9615C1.95987 14.7438 1.06266 15.8556 0.532846 17.1565C0.00303279 18.4573 -0.13559 19.8888 0.134506 21.2697C0.404603 22.6507 1.07129 23.9192 2.05026 24.9148C3.02922 25.9105 4.2765 26.5885 5.63437 26.8632C6.99224 27.1379 8.39971 26.9969 9.67879 26.4581C10.9579 25.9193 12.0511 25.0068 12.8203 23.836C13.5895 22.6653 14 21.2889 14 19.8809C13.998 17.9934 13.2598 16.1838 11.9475 14.8491C10.6352 13.5145 8.8559 12.7638 7 12.7617ZM7 23.0449C6.38468 23.0449 5.78318 22.8594 5.27156 22.5117C4.75994 22.164 4.36118 21.6698 4.12571 21.0917C3.89024 20.5135 3.82863 19.8773 3.94867 19.2636C4.06871 18.6498 4.36502 18.086 4.80012 17.6435C5.23521 17.201 5.78956 16.8997 6.39305 16.7776C6.99655 16.6555 7.62209 16.7182 8.19057 16.9576C8.75906 17.1971 9.24495 17.6027 9.5868 18.123C9.92865 18.6433 10.1111 19.2551 10.1111 19.8809C10.1102 20.7197 9.78213 21.524 9.19888 22.1172C8.61563 22.7103 7.82484 23.044 7 23.0449Z" fill="white"/>
<path d="M8.55557 19.8809C8.55557 20.1938 8.46434 20.4996 8.29341 20.7598C8.12249 21.02 7.87954 21.2227 7.5953 21.3425C7.31106 21.4622 6.99829 21.4935 6.69654 21.4325C6.39479 21.3715 6.11762 21.2208 5.90007 20.9995C5.68252 20.7783 5.53437 20.4964 5.47435 20.1895C5.41433 19.8826 5.44513 19.5645 5.56287 19.2754C5.6806 18.9864 5.87998 18.7393 6.13579 18.5654C6.3916 18.3916 6.69236 18.2988 7.00002 18.2988C7.41258 18.2988 7.80824 18.4655 8.09996 18.7622C8.39169 19.0589 8.55557 19.4613 8.55557 19.8809Z" fill="white"/>
<path d="M8.29627 0H5.70367V11.1797H8.29627V0Z" fill="white"/>
<path d="M13.2222 0H9.85187V11.1797H11.1482C11.3544 11.1795 11.5521 11.096 11.6978 10.9477L13.7719 8.83828C13.9178 8.69008 13.9998 8.48902 14 8.2793V0.791016C14 0.581225 13.9181 0.380027 13.7722 0.231683C13.6263 0.0833388 13.4285 0 13.2222 0Z" fill="white"/>
<path d="M2.30222 10.9477C2.44794 11.096 2.64564 11.1795 2.85185 11.1797H4.14815V0H0.777778C0.571498 0 0.373667 0.0833388 0.227805 0.231683C0.0819439 0.380027 0 0.581225 0 0.791016V8.2793C0.000181535 8.48902 0.082245 8.69008 0.228148 8.83828L2.30222 10.9477Z" fill="white"/>
</g>
<defs>
<clipPath id="clip0">
<rect width="24" height="37" fill="white"/>
</clipPath>
</defs>
</svg>
