<svg width="32" height="34" viewBox="0 0 32 34" fill="none" xmlns="http://www.w3.org/2000/svg">
<g clip-path="url(#clip0)">
<path d="M14.5454 34C11.5392 34 9.09082 31.6173 9.09082 28.6875C9.09082 28.1011 9.57969 27.625 10.1817 27.625C10.7838 27.625 11.2727 28.1011 11.2727 28.6875C11.2727 30.4459 12.742 31.875 14.5454 31.875C16.3488 31.875 17.8182 30.4459 17.8182 28.6875C17.8182 28.1011 18.307 27.625 18.9091 27.625C19.5111 27.625 20 28.1011 20 28.6875C20 31.6173 17.5522 34 14.5454 34Z" fill="#625C98"/>
<path d="M26.5454 29.75H2.54525C1.14205 29.75 0 28.6377 0 27.2711C0 26.5452 0.324548 25.8586 0.889779 25.3871C0.926598 25.3559 0.965462 25.328 1.00637 25.3021C3.14184 23.4866 4.36367 20.8761 4.36367 18.1189V14.1664C4.36367 8.69855 8.93256 4.25 14.5453 4.25C14.7778 4.25 15.0301 4.25398 15.2626 4.2925C15.8572 4.38879 16.2588 4.9373 16.1599 5.51504C16.061 6.09277 15.4876 6.48391 14.9047 6.38762C14.7881 6.36902 14.6606 6.375 14.5453 6.375C10.1353 6.375 6.5455 9.86996 6.5455 14.1664V18.1189C6.5455 21.5415 5.00526 24.7802 2.32297 27.0028C2.30115 27.02 2.28206 27.0353 2.25888 27.0512C2.22002 27.0997 2.18183 27.1734 2.18183 27.2711C2.18183 27.4636 2.34752 27.625 2.54525 27.625H26.5454C26.7431 27.625 26.9095 27.4636 26.9095 27.2711C26.9095 27.1714 26.8713 27.0997 26.8311 27.0512C26.8093 27.036 26.7902 27.02 26.7684 27.0028C24.0847 24.7788 22.5458 21.5415 22.5458 18.1189V16.575C22.5458 15.9886 23.0347 15.5125 23.6368 15.5125C24.2388 15.5125 24.7277 15.9886 24.7277 16.575V18.1189C24.7277 20.8775 25.9509 23.4899 28.0891 25.3061C28.1279 25.3313 28.1661 25.3586 28.2009 25.3884C28.7668 25.8586 29.0913 26.5459 29.0913 27.2711C29.0913 28.6377 27.9493 29.75 26.5454 29.75Z" fill="#625C98"/>
<path d="M24.7277 14.1664C20.7172 14.1664 17.4547 10.9889 17.4547 7.08355C17.4547 3.1782 20.7172 0 24.7277 0C28.7382 0 32 3.17754 32 7.08355C32 10.9896 28.7375 14.1664 24.7277 14.1664ZM24.7277 2.125C21.92 2.125 19.6365 4.34895 19.6365 7.08355C19.6365 9.8175 21.92 12.0414 24.7277 12.0414C27.5348 12.0414 29.8182 9.8175 29.8182 7.08355C29.8182 4.34895 27.5348 2.125 24.7277 2.125Z" fill="black"/>
<circle cx="24.5" cy="7.5" r="7.5" fill="#00FF85"/>
</g>
<defs>
<clipPath id="clip0">
<rect width="32" height="34" fill="white"/>
</clipPath>
</defs>
</svg>
