<svg width="24" height="24" viewBox="0 0 24 24" fill="none" xmlns="http://www.w3.org/2000/svg">
<path d="M16.4531 10.5944V0.703125C16.4531 0.516645 16.379 0.337802 16.2472 0.20594C16.1153 0.074079 15.9365 0 15.75 0H0.703125C0.516645 0 0.337802 0.074079 0.20594 0.20594C0.074079 0.337802 0 0.516645 0 0.703125V21.75C0 21.9365 0.074079 22.1153 0.20594 22.2472C0.337802 22.379 0.516645 22.4531 0.703125 22.4531H13.0287C14.1825 23.3906 15.6537 24 17.25 24C20.9463 24 24 20.9463 24 17.25C24 13.2606 20.4619 10.1175 16.4531 10.5944ZM1.40625 1.40625H15.0469V10.9194C10.85 12.3838 9.23438 17.4312 11.7288 21.0444H1.40625V1.40625ZM17.25 22.5938C14.3294 22.5938 11.9531 20.1706 11.9531 17.25C11.9531 15.8452 12.5112 14.4979 13.5045 13.5045C14.4979 12.5112 15.8452 11.9531 17.25 11.9531C18.6548 11.9531 20.0021 12.5112 20.9955 13.5045C21.9888 14.4979 22.5469 15.8452 22.5469 17.25C22.5469 20.1706 20.1719 22.5938 17.25 22.5938Z" fill="#5A6895"/>
<path d="M12.75 8.20312C12.9365 8.20312 13.1153 8.12905 13.2472 7.99718C13.379 7.86532 13.4531 7.68648 13.4531 7.5V3.75C13.4531 3.56352 13.379 3.38468 13.2472 3.25282C13.1153 3.12095 12.9365 3.04688 12.75 3.04688H3.75C3.56352 3.04688 3.38468 3.12095 3.25282 3.25282C3.12095 3.38468 3.04688 3.56352 3.04688 3.75V7.5C3.04688 7.68648 3.12095 7.86532 3.25282 7.99718C3.38468 8.12905 3.56352 8.20312 3.75 8.20312H12.75ZM4.45312 4.45312H12.0469V6.79688H4.45312V4.45312Z" fill="#5A6895"/>
<path d="M4.875 9.79688H4.125C3.93852 9.79688 3.75968 9.87095 3.62782 10.0028C3.49595 10.1347 3.42188 10.3135 3.42188 10.5C3.42188 10.6865 3.49595 10.8653 3.62782 10.9972C3.75968 11.129 3.93852 11.2031 4.125 11.2031H4.875C5.06148 11.2031 5.24032 11.129 5.37218 10.9972C5.50405 10.8653 5.57812 10.6865 5.57812 10.5C5.57812 10.3135 5.50405 10.1347 5.37218 10.0028C5.24032 9.87095 5.06148 9.79688 4.875 9.79688Z" fill="#5A6895"/>
<path d="M8.625 9.79688H7.875C7.68852 9.79688 7.50968 9.87095 7.37782 10.0028C7.24595 10.1347 7.17188 10.3135 7.17188 10.5C7.17188 10.6865 7.24595 10.8653 7.37782 10.9972C7.50968 11.129 7.68852 11.2031 7.875 11.2031H8.625C8.81148 11.2031 8.99032 11.129 9.12218 10.9972C9.25405 10.8653 9.32812 10.6865 9.32812 10.5C9.32812 10.3135 9.25405 10.1347 9.12218 10.0028C8.99032 9.87095 8.81148 9.79688 8.625 9.79688Z" fill="#5A6895"/>
<path d="M12.375 9.79688H11.625C11.4385 9.79688 11.2597 9.87095 11.1278 10.0028C10.996 10.1347 10.9219 10.3135 10.9219 10.5C10.9219 10.6865 10.996 10.8653 11.1278 10.9972C11.2597 11.129 11.4385 11.2031 11.625 11.2031H12.375C12.5615 11.2031 12.7403 11.129 12.8722 10.9972C13.004 10.8653 13.0781 10.6865 13.0781 10.5C13.0781 10.3135 13.004 10.1347 12.8722 10.0028C12.7403 9.87095 12.5615 9.79688 12.375 9.79688Z" fill="#5A6895"/>
<path d="M4.875 13.5469H4.125C3.93852 13.5469 3.75968 13.621 3.62782 13.7528C3.49595 13.8847 3.42188 14.0635 3.42188 14.25C3.42188 14.4365 3.49595 14.6153 3.62782 14.7472C3.75968 14.879 3.93852 14.9531 4.125 14.9531H4.875C5.06148 14.9531 5.24032 14.879 5.37218 14.7472C5.50405 14.6153 5.57812 14.4365 5.57812 14.25C5.57812 14.0635 5.50405 13.8847 5.37218 13.7528C5.24032 13.621 5.06148 13.5469 4.875 13.5469Z" fill="#5A6895"/>
<path d="M8.625 13.5469H7.875C7.68852 13.5469 7.50968 13.621 7.37782 13.7528C7.24595 13.8847 7.17188 14.0635 7.17188 14.25C7.17188 14.4365 7.24595 14.6153 7.37782 14.7472C7.50968 14.879 7.68852 14.9531 7.875 14.9531H8.625C8.81148 14.9531 8.99032 14.879 9.12218 14.7472C9.25405 14.6153 9.32812 14.4365 9.32812 14.25C9.32812 14.0635 9.25405 13.8847 9.12218 13.7528C8.99032 13.621 8.81148 13.5469 8.625 13.5469Z" fill="#5A6895"/>
<path d="M4.875 17.2969H4.125C3.93852 17.2969 3.75968 17.371 3.62782 17.5028C3.49595 17.6347 3.42188 17.8135 3.42188 18C3.42188 18.1865 3.49595 18.3653 3.62782 18.4972C3.75968 18.629 3.93852 18.7031 4.125 18.7031H4.875C5.06148 18.7031 5.24032 18.629 5.37218 18.4972C5.50405 18.3653 5.57812 18.1865 5.57812 18C5.57812 17.8135 5.50405 17.6347 5.37218 17.5028C5.24032 17.371 5.06148 17.2969 4.875 17.2969Z" fill="#5A6895"/>
<path d="M8.625 17.2969H7.875C7.68852 17.2969 7.50968 17.371 7.37782 17.5028C7.24595 17.6347 7.17188 17.8135 7.17188 18C7.17188 18.1865 7.24595 18.3653 7.37782 18.4972C7.50968 18.629 7.68852 18.7031 7.875 18.7031H8.625C8.81148 18.7031 8.99032 18.629 9.12218 18.4972C9.25405 18.3653 9.32812 18.1865 9.32812 18C9.32812 17.8135 9.25405 17.6347 9.12218 17.5028C8.99032 17.371 8.81148 17.2969 8.625 17.2969Z" fill="#5A6895"/>
<path d="M18.03 16.5581C17.5819 16.4 17.0881 16.21 16.8231 16.0019C16.8056 15.9881 16.7731 15.9062 16.7956 15.785C16.8069 15.7269 16.8581 15.535 17.0456 15.4762C17.5144 15.335 17.7331 15.5156 17.77 15.5537C17.8334 15.6248 17.9107 15.6822 17.997 15.7225C18.0833 15.7628 18.1769 15.7852 18.2722 15.7882C18.3674 15.7912 18.4622 15.7748 18.5509 15.7401C18.6396 15.7053 18.7203 15.6529 18.7882 15.586C18.856 15.5191 18.9095 15.4392 18.9455 15.3509C18.9815 15.2627 18.9991 15.1681 18.9974 15.0729C18.9957 14.9776 18.9747 14.8837 18.9356 14.7968C18.8965 14.71 18.8402 14.6319 18.77 14.5675C18.5426 14.3433 18.2613 14.1817 17.9531 14.0981V14.0625C17.9531 13.876 17.879 13.6972 17.7472 13.5653C17.6153 13.4335 17.4365 13.3594 17.25 13.3594C17.0635 13.3594 16.8847 13.4335 16.7528 13.5653C16.6209 13.6972 16.5469 13.876 16.5469 14.0625V14.1637C15.2794 14.6244 14.9881 16.3544 15.9537 17.1112C16.3781 17.4444 16.9762 17.6813 17.56 17.8875C17.9087 18.0125 17.9444 18.2625 17.9125 18.45C17.8882 18.6091 17.8073 18.754 17.6847 18.8582C17.562 18.9624 17.4059 19.0187 17.245 19.0169C16.7762 19.02 16.665 19.0025 16.3225 18.7787C16.2453 18.7256 16.1583 18.6884 16.0665 18.6694C15.9747 18.6504 15.8801 18.6499 15.7881 18.668C15.6962 18.6861 15.6088 18.7223 15.531 18.7747C15.4533 18.827 15.3868 18.8944 15.3355 18.9728C15.2842 19.0512 15.249 19.1391 15.2321 19.2313C15.2153 19.3234 15.217 19.4181 15.2372 19.5096C15.2574 19.6011 15.2957 19.6876 15.3499 19.7641C15.404 19.8406 15.4729 19.9055 15.5525 19.955C15.9275 20.2 16.2225 20.3212 16.5469 20.3781V20.4456C16.5469 20.6321 16.6209 20.8109 16.7528 20.9428C16.8847 21.0747 17.0635 21.1488 17.25 21.1488C17.4365 21.1488 17.6153 21.0747 17.7472 20.9428C17.879 20.8109 17.9531 20.6321 17.9531 20.4456V20.2987C19.6562 19.6825 19.8825 17.2175 18.0287 16.5625L18.03 16.5581Z" fill="#5A6895"/>
</svg>
