<svg width="27" height="20" viewBox="0 0 27 20" fill="none" xmlns="http://www.w3.org/2000/svg">
<path d="M7.81988 19.9999C7.55754 19.9988 7.30614 19.8947 7.11988 19.7099L1.31988 13.7799C1.19924 13.6961 1.09855 13.5866 1.02499 13.4595C0.951433 13.3323 0.9068 13.1905 0.894269 13.0441C0.881738 12.8977 0.901617 12.7503 0.952493 12.6125C1.00337 12.4747 1.08399 12.3498 1.18862 12.2466C1.29326 12.1435 1.41933 12.0647 1.55788 12.0158C1.69643 11.9669 1.84405 11.9491 1.99024 11.9638C2.13643 11.9784 2.2776 12.0251 2.40371 12.1004C2.52982 12.1758 2.63777 12.2781 2.71988 12.3999L7.81988 17.6199L24.5099 0.519912C24.7005 0.385277 24.9321 0.32153 25.1648 0.339711C25.3974 0.357892 25.6164 0.456855 25.7837 0.619464C25.9511 0.782074 26.0563 0.998089 26.0812 1.23011C26.106 1.46212 26.049 1.69553 25.9199 1.88991L8.51988 19.6799C8.33362 19.8647 8.08222 19.9688 7.81988 19.9699V19.9999Z" fill="#3FC66D"/>
</svg>
