<svg width="20" height="20" viewBox="0 0 20 20" fill="none" xmlns="http://www.w3.org/2000/svg">
<path d="M8.16768 10.0163L0.380075 2.22846C-0.126728 1.7219 -0.126728 0.902849 0.380075 0.396282C0.886644 -0.110284 1.70569 -0.110284 2.21226 0.396282L10.0001 8.18412L17.7877 0.396282C18.2945 -0.110284 19.1133 -0.110284 19.6199 0.396282C20.1267 0.902849 20.1267 1.7219 19.6199 2.22846L11.8323 10.0163L19.6199 17.8041C20.1267 18.3107 20.1267 19.1298 19.6199 19.6363C19.3674 19.889 19.0355 20.016 18.7038 20.016C18.3721 20.016 18.0404 19.889 17.7877 19.6363L10.0001 11.8485L2.21226 19.6363C1.95957 19.889 1.62787 20.016 1.29617 20.016C0.964468 20.016 0.632767 19.889 0.380075 19.6363C-0.126728 19.1298 -0.126728 18.3107 0.380075 17.8041L8.16768 10.0163Z" fill="#62699B"/>
</svg>
