<svg width="20" height="24" viewBox="0 0 20 24" fill="none" xmlns="http://www.w3.org/2000/svg">
<path d="M19.7604 2.98686C19.677 2.94305 19.5826 2.92643 19.4899 2.93919C19.3971 2.95195 19.3103 2.9935 19.2409 3.05832C17.9894 4.21592 16.8395 4.77804 15.7197 4.77804C14.5998 4.77804 13.5169 4.24212 12.1684 3.03926C9.24522 0.462049 6.3682 0.466813 3.00629 2.92969C2.77077 3.10119 2.77077 3.10119 2.81233 8.0603C2.81233 10.0087 2.84466 12.4239 2.81233 12.7645C2.78828 12.8629 2.79526 12.9665 2.83226 13.0605C2.86926 13.1544 2.93435 13.2337 3.01806 13.2868C3.10177 13.34 3.19974 13.3642 3.2977 13.3559C3.39567 13.3477 3.48852 13.3074 3.56276 13.2409C4.73437 12.3075 6.16506 11.7857 7.64508 11.7522C8.60866 11.7576 9.55763 11.9958 10.4159 12.4478C11.3537 12.9664 12.3955 13.2534 13.4591 13.2862C19.0377 13.2862 19.9567 3.86816 19.9936 3.468C20.0061 3.37265 19.9902 3.27565 19.9482 3.18977C19.9061 3.10388 19.8399 3.03314 19.7581 2.98686H19.7604Z" fill="white"/>
<path d="M1.39002 0H0.955927C0.427983 0 0 0.441494 0 0.986106V23.0139C0 23.5585 0.427983 24 0.955927 24H1.39002C1.91796 24 2.34595 23.5585 2.34595 23.0139V0.986106C2.34595 0.441494 1.91796 0 1.39002 0Z" fill="white"/>
</svg>
