<svg width="34" height="34" viewBox="0 0 24 21" fill="none" xmlns="http://www.w3.org/2000/svg">
<g clip-path="url(#clip0)">
<path d="M12 6V11.2469C12 11.3454 12.0194 11.443 12.0572 11.5341C12.0949 11.6251 12.1503 11.7078 12.22 11.7775L15.9737 15.5275L17.0362 14.465L13.4963 10.9375V6H12Z" fill="white"/>
<path d="M13.5 0C8.22062 0 3.85125 3.92063 3.12 9H0L3.75 12.75L7.5 9H4.63562C5.35312 4.75 9.04875 1.5 13.5 1.5C18.4631 1.5 22.5 5.53687 22.5 10.5C22.5 15.4631 18.4631 19.5 13.5 19.5C12.1308 19.5037 10.779 19.1933 9.5486 18.5927C8.31817 17.9921 7.24188 17.1173 6.4025 16.0356L5.22062 16.9587C6.19989 18.2205 7.45544 19.2408 8.89073 19.9414C10.326 20.642 11.9029 21.0041 13.5 21C19.29 21 24 16.2894 24 10.5C24 4.71063 19.29 0 13.5 0Z" fill="white"/>
</g>
<defs>
<clipPath id="clip0">
<rect width="34" height="31" fill="white"/>
</clipPath>
</defs>
</svg>
