<svg width="50" height="50" viewBox="0 0 50 50" fill="none" xmlns="http://www.w3.org/2000/svg">
<ellipse cx="25" cy="25" rx="25" ry="25" transform="rotate(-180 25 25)" fill="#13183D"/>
<path d="M26.5309 30.4395C26.5305 30.2413 26.5698 30.045 26.6465 29.8619C26.7232 29.6788 26.8357 29.5127 26.9776 29.373L31.4805 24.9055L26.9726 20.4381C26.6865 20.1546 26.5257 19.77 26.5257 19.3691C26.5257 18.9681 26.6865 18.5835 26.9726 18.3C27.2587 18.0165 27.6467 17.8572 28.0513 17.8572C28.4559 17.8572 28.844 18.0165 29.1301 18.3L34.7142 23.834C34.8562 23.9742 34.9688 24.1408 35.0457 24.3243C35.1225 24.5077 35.1621 24.7044 35.1621 24.903C35.1621 25.1017 35.1225 25.2984 35.0457 25.4818C34.9688 25.6653 34.8562 25.8319 34.7142 25.9721L29.1301 31.5061C28.9171 31.7169 28.6458 31.8604 28.3506 31.9185C28.0553 31.9767 27.7493 31.9468 27.4712 31.8326C27.1931 31.7185 26.9554 31.5253 26.788 31.2773C26.6206 31.0294 26.5312 30.7378 26.5309 30.4395Z" fill="white"/>
<path d="M13.5716 24.9023C13.5716 24.5626 13.7248 24.2367 13.9975 23.9965C14.2702 23.7563 14.64 23.6213 15.0257 23.6213L32.4746 23.6213C32.8603 23.6213 33.2301 23.7563 33.5028 23.9965C33.7755 24.2367 33.9287 24.5626 33.9287 24.9023C33.9287 25.242 33.7755 25.5679 33.5028 25.8081C33.2301 26.0483 32.8603 26.1833 32.4746 26.1833L15.0257 26.1833C14.64 26.1833 14.2702 26.0483 13.9975 25.8081C13.7248 25.5678 13.5716 25.242 13.5716 24.9023Z" fill="white"/>
</svg>
