<svg width="33" height="32" viewBox="0 0 23 22" fill="none" xmlns="http://www.w3.org/2000/svg">
<g clip-path="url(#clip0)">
<path d="M22.0418 17.6952H19.4898C19.0747 16.3169 17.8057 15.3041 16.2918 15.3041C14.778 15.3041 13.5098 16.3169 13.0939 17.6952H0.958207C0.707614 17.7006 0.469113 17.8038 0.293805 17.9826C0.118496 18.1614 0.0203247 18.4016 0.0203247 18.6518C0.0203247 18.902 0.118496 19.1422 0.293805 19.321C0.469113 19.4998 0.707614 19.603 0.958207 19.6084H13.0939C13.5085 20.9867 14.7775 21.9995 16.2918 21.9995C17.8062 21.9995 19.0739 20.9867 19.4898 19.6084H22.0418C22.2924 19.603 22.5309 19.4998 22.7062 19.321C22.8815 19.1422 22.9797 18.902 22.9797 18.6518C22.9797 18.4016 22.8815 18.1614 22.7062 17.9826C22.5309 17.8038 22.2924 17.7006 22.0418 17.6952ZM16.2918 20.0868C16.0075 20.0868 15.7296 20.0027 15.4932 19.845C15.2568 19.6873 15.0726 19.4633 14.9638 19.2011C14.855 18.9389 14.8265 18.6504 14.882 18.3721C14.9374 18.0938 15.0743 17.8381 15.2754 17.6375C15.4764 17.4368 15.7325 17.3002 16.0114 17.2448C16.2902 17.1895 16.5793 17.2179 16.8419 17.3265C17.1046 17.4351 17.3291 17.619 17.4871 17.8549C17.645 18.0909 17.7293 18.3683 17.7293 18.652C17.7293 19.0326 17.5779 19.3975 17.3083 19.6666C17.0387 19.9356 16.6731 20.0868 16.2918 20.0868Z" fill="white"/>
<path d="M0.958207 4.30432H13.0939C13.5098 5.6826 14.7793 6.69546 16.2918 6.69546C17.8044 6.69546 19.0739 5.6826 19.4898 4.30432H22.0418C22.2924 4.2989 22.5309 4.19574 22.7062 4.01694C22.8815 3.83813 22.9797 3.5979 22.9797 3.34773C22.9797 3.09755 22.8815 2.85733 22.7062 2.67852C22.5309 2.49972 22.2924 2.39655 22.0418 2.39114H19.4898C19.0739 1.01286 17.8057 0 16.2918 0C14.778 0 13.5098 1.01286 13.0939 2.39114H0.958207C0.707614 2.39655 0.469113 2.49972 0.293805 2.67852C0.118496 2.85733 0.0203247 3.09755 0.0203247 3.34773C0.0203247 3.5979 0.118496 3.83813 0.293805 4.01694C0.469113 4.19574 0.707614 4.2989 0.958207 4.30432ZM16.2918 1.91273C16.5762 1.91273 16.8541 1.99688 17.0905 2.15453C17.3269 2.31219 17.5111 2.53627 17.6199 2.79844C17.7287 3.06061 17.7572 3.3491 17.7017 3.62741C17.6463 3.90573 17.5093 4.16139 17.3083 4.36204C17.1073 4.5627 16.8511 4.69935 16.5723 4.75471C16.2934 4.81007 16.0044 4.78166 15.7417 4.67306C15.4791 4.56447 15.2546 4.38057 15.0966 4.14462C14.9386 3.90867 14.8543 3.63128 14.8543 3.3475C14.8543 2.96698 15.0058 2.60204 15.2754 2.33297C15.545 2.06389 15.9106 1.91273 16.2918 1.91273Z" fill="white"/>
<path d="M22.0418 10.0434H9.90617C9.4902 8.66516 8.2225 7.65186 6.70818 7.65186C5.19387 7.65186 3.92617 8.66516 3.5102 10.0434H0.958184C0.704058 10.0434 0.46034 10.1442 0.280645 10.3236C0.100951 10.5029 0 10.7462 0 10.9998C0 11.2535 0.100951 11.4967 0.280645 11.6761C0.46034 11.8554 0.704058 11.9562 0.958184 11.9562H3.5102C3.92617 13.3345 5.19432 14.3478 6.70818 14.3478C8.22205 14.3478 9.4902 13.3345 9.90617 11.9562H22.0418C22.2959 11.9562 22.5397 11.8554 22.7194 11.6761C22.899 11.4967 23 11.2535 23 10.9998C23 10.7462 22.899 10.5029 22.7194 10.3236C22.5397 10.1442 22.2959 10.0434 22.0418 10.0434ZM6.70818 12.4346C6.42387 12.4346 6.14595 12.3504 5.90955 12.1928C5.67316 12.0351 5.48891 11.811 5.38011 11.5489C5.27131 11.2867 5.24284 10.9982 5.2983 10.7199C5.35377 10.4416 5.49068 10.1859 5.69172 9.98527C5.89276 9.78461 6.14889 9.64796 6.42774 9.5926C6.70659 9.53724 6.99562 9.56566 7.25829 9.67425C7.52096 9.78284 7.74547 9.96674 7.90342 10.2027C8.06138 10.4386 8.14568 10.716 8.14568 10.9998C8.14568 11.3803 7.99423 11.7453 7.72465 12.0143C7.45507 12.2834 7.08943 12.4346 6.70818 12.4346Z" fill="white"/>
</g>
<defs>
<clipPath id="clip0">
<rect width="33" height="32" fill="white"/>
</clipPath>
</defs>
</svg>
