<svg width="13" height="14" viewBox="0 0 13 14" fill="none" xmlns="http://www.w3.org/2000/svg">
<path d="M7.17718 12.5614C7.17697 12.4595 7.19874 12.3586 7.24121 12.2645C7.28368 12.1704 7.34602 12.085 7.42463 12.0132L9.91875 9.71704L7.42182 7.4209C7.26335 7.27517 7.17432 7.07752 7.17432 6.87143C7.17432 6.66534 7.26335 6.46769 7.42182 6.32196C7.58029 6.17623 7.79522 6.09436 8.01934 6.09436C8.24345 6.09436 8.45839 6.17623 8.61686 6.32196L11.7099 9.16628C11.7885 9.23834 11.8509 9.32398 11.8935 9.41827C11.9361 9.51256 11.958 9.61365 11.958 9.71575C11.958 9.81784 11.9361 9.91893 11.8935 10.0132C11.8509 10.1075 11.7885 10.1931 11.7099 10.2652L8.61686 13.1095C8.49889 13.2179 8.34864 13.2916 8.18511 13.3215C8.02157 13.3514 7.85207 13.336 7.69803 13.2774C7.54398 13.2187 7.41229 13.1194 7.31959 12.992C7.22688 12.8645 7.17733 12.7147 7.17718 12.5614Z" fill="white"/>
<path d="M-0.000305306 9.71539C-0.000305272 9.54077 0.0845489 9.37331 0.235593 9.24984C0.386636 9.12637 0.591495 9.057 0.805101 9.057L10.47 9.05701C10.6836 9.05701 10.8884 9.12637 11.0395 9.24984C11.1905 9.37331 11.2754 9.54078 11.2754 9.71539C11.2754 9.89001 11.1905 10.0575 11.0395 10.1809C10.8884 10.3044 10.6836 10.3738 10.47 10.3738L0.805101 10.3738C0.591494 10.3738 0.386636 10.3044 0.235593 10.1809C0.0845488 10.0575 -0.000305341 9.89 -0.000305306 9.71539Z" fill="white"/>
<path d="M5.01898 6.46694C5.01919 6.36506 4.99743 6.26416 4.95496 6.17007C4.91249 6.07597 4.85015 5.99056 4.77155 5.91876L2.27749 3.62265L4.77436 1.32653C4.93282 1.1808 5.02185 0.98315 5.02185 0.77706C5.02185 0.570971 4.93282 0.373322 4.77435 0.227595C4.61589 0.0818676 4.40096 -1.00572e-06 4.17685 -9.55418e-07C3.95274 -9.05116e-07 3.73781 0.0818678 3.57935 0.227595L0.486383 3.07189C0.407743 3.14396 0.345347 3.22959 0.302772 3.32388C0.260197 3.41817 0.238282 3.51926 0.238282 3.62136C0.238282 3.72345 0.260197 3.82454 0.302772 3.91883C0.345347 4.01312 0.407743 4.09875 0.486383 4.17082L3.57935 7.01511C3.69732 7.12346 3.84755 7.19723 4.01109 7.2271C4.17462 7.25698 4.34411 7.24162 4.49815 7.18296C4.6522 7.12431 4.78389 7.02499 4.87658 6.89755C4.96928 6.77011 5.01884 6.62026 5.01898 6.46694Z" fill="white"/>
<path d="M12.1965 3.62101C12.1965 3.4464 12.1117 3.27894 11.9606 3.15548C11.8096 3.03201 11.6047 2.96264 11.3911 2.96264L1.7263 2.96265C1.51269 2.96265 1.30784 3.03201 1.15679 3.15548C1.00575 3.27895 0.920899 3.44641 0.920899 3.62102C0.920899 3.79563 1.00575 3.96309 1.15679 4.08655C1.30784 4.21002 1.5127 4.27939 1.7263 4.27939L11.3911 4.27938C11.6047 4.27938 11.8096 4.21002 11.9606 4.08655C12.1117 3.96308 12.1965 3.79562 12.1965 3.62101Z" fill="white"/>
</svg>
