<svg width="69" height="68" viewBox="0 0 69 68" fill="none" xmlns="http://www.w3.org/2000/svg">
<ellipse cx="37" cy="35" rx="25" ry="25" transform="rotate(-180 37 35)" fill="#3FC66D"/>
<path d="M37.9294 42.9047C37.9291 42.7676 37.9563 42.6318 38.0094 42.5052C38.0624 42.3786 38.1402 42.2636 38.2384 42.167L41.353 39.0769L38.2349 35.9869C38.037 35.7908 37.9258 35.5248 37.9258 35.2474C37.9258 34.9701 38.037 34.7041 38.2349 34.508C38.4328 34.3118 38.7012 34.2017 38.9811 34.2017C39.2609 34.2017 39.5293 34.3118 39.7272 34.508L43.5897 38.3357C43.6879 38.4327 43.7658 38.548 43.819 38.6749C43.8721 38.8017 43.8995 38.9378 43.8995 39.0752C43.8995 39.2126 43.8721 39.3486 43.819 39.4755C43.7658 39.6024 43.6879 39.7177 43.5897 39.8147L39.7272 43.6424C39.5799 43.7882 39.3923 43.8875 39.1881 43.9277C38.9838 43.9679 38.7722 43.9473 38.5798 43.8683C38.3874 43.7894 38.223 43.6557 38.1072 43.4842C37.9915 43.3127 37.9296 43.111 37.9294 42.9047Z" fill="white"/>
<path d="M28.9657 39.0745C28.9657 38.8395 29.0717 38.6141 29.2603 38.448C29.4489 38.2818 29.7047 38.1885 29.9715 38.1885L42.0407 38.1885C42.3075 38.1885 42.5633 38.2818 42.7519 38.448C42.9405 38.6141 43.0465 38.8395 43.0465 39.0745C43.0465 39.3095 42.9405 39.5349 42.7519 39.701C42.5633 39.8672 42.3075 39.9605 42.0407 39.9605L29.9715 39.9605C29.7047 39.9605 29.4489 39.8672 29.2603 39.701C29.0717 39.5349 28.9657 39.3095 28.9657 39.0745Z" fill="white"/>
<path d="M35.2323 34.7031C35.2325 34.5659 35.2054 34.4302 35.1523 34.3035C35.0993 34.1769 35.0214 34.0619 34.9233 33.9653L31.8087 30.8753L34.9268 27.7852C35.1247 27.5891 35.2359 27.3231 35.2359 27.0457C35.2359 26.7684 35.1247 26.5024 34.9268 26.3063C34.7289 26.1102 34.4605 26 34.1806 26C33.9008 26 33.6324 26.1102 33.4345 26.3063L29.572 30.1341C29.4738 30.2311 29.3959 30.3463 29.3427 30.4732C29.2895 30.6001 29.2622 30.7361 29.2622 30.8735C29.2622 31.0109 29.2895 31.147 29.3427 31.2739C29.3959 31.4008 29.4738 31.516 29.572 31.613L33.4345 35.4408C33.5818 35.5866 33.7694 35.6859 33.9736 35.7261C34.1778 35.7663 34.3895 35.7456 34.5819 35.6667C34.7742 35.5877 34.9387 35.4541 35.0545 35.2826C35.1702 35.111 35.2321 34.9094 35.2323 34.7031Z" fill="white"/>
<path d="M44.196 30.8728C44.196 30.6378 44.09 30.4125 43.9014 30.2463C43.7128 30.0802 43.457 29.9868 43.1902 29.9868L31.121 29.9868C30.8542 29.9868 30.5984 30.0802 30.4098 30.2463C30.2212 30.4125 30.1152 30.6379 30.1152 30.8728C30.1152 31.1078 30.2212 31.3332 30.4098 31.4994C30.5984 31.6655 30.8542 31.7589 31.121 31.7589L43.1902 31.7589C43.457 31.7589 43.7128 31.6655 43.9014 31.4994C44.09 31.3332 44.196 31.1078 44.196 30.8728Z" fill="white"/>
</svg>
