<svg width="236" height="291" viewBox="0 0 236 291" fill="none" xmlns="http://www.w3.org/2000/svg">
<g clip-path="url(#clip0)">
<g opacity="0.8">
<path opacity="0.3" d="M234.694 111.043C200.921 91.7221 167.891 60.6228 140.212 22.0846L139.828 21.878C112.149 28.1546 79.1446 20.7673 45.3462 0.74907L44.066 0L0.281631 25.2358L20.7655 38.8224C27.1667 125.069 60.5555 195.868 114.249 279.712L115.555 280.461C125.208 276.639 110.587 285.472 118.883 280.746L168.71 252.798C205.965 231.23 228.959 198.141 234.156 134.135L236 111.74L234.694 111.043Z" fill="url(#paint0_linear)"/>
<path opacity="0.8" d="M234.694 111.043C200.921 91.7221 167.891 60.6228 140.212 22.0846L139.828 21.878C112.149 28.1546 79.1446 20.7673 45.3462 0.74907L44.066 0L39.2011 3.02212L40.5069 3.77117C74.2797 23.7894 107.31 31.1767 134.989 24.9001L135.373 25.1067C163.052 63.6191 196.082 94.8475 229.855 114.065L231.135 114.788L229.317 137.209C224.427 197.212 203.917 230.041 170.656 251.687C206.759 230.093 229.061 197.057 234.156 134.186L236 111.792L234.694 111.043Z" fill="url(#paint1_linear)"/>
<path opacity="0.3" d="M234.694 111.043C200.921 91.722 167.891 60.6228 140.212 22.0845L139.828 21.8779H139.29L45.423 76.4824L184.585 140.876L236 111.689L234.694 111.043Z" fill="url(#paint2_linear)"/>
<path style="mix-blend-mode:screen" opacity="0.8" d="M45.0383 26.8889L44.1165 5.78589C42.9131 5.11431 41.7096 4.44272 40.5062 3.71949L39.2004 2.94458L41.0183 27.483C44.2957 70.814 54.6787 113.296 71.7441 153.197C55.9958 112.869 46.9719 70.1896 45.0383 26.8889Z" fill="url(#paint3_radial)"/>
</g>
<path d="M198.693 131.681C164.921 112.334 131.89 81.2351 104.211 42.7227L103.827 42.516C76.1485 48.7927 43.1183 41.4053 9.34546 21.3872L8.03958 20.6381L0.358124 25.2358L20.842 38.8224C27.2432 125.068 60.632 195.868 114.325 279.712L115.631 280.461C125.284 276.639 110.664 285.472 118.96 280.745L132.684 273.461C169.837 251.919 192.881 218.831 198.156 154.825L199.974 132.404L198.693 131.681Z" fill="url(#paint4_linear)"/>
<path d="M198.694 131.681C164.921 112.334 131.89 81.2351 104.212 42.7226L103.828 42.516H103.264L45.4229 76.4824L184.585 140.876L199.948 132.301L198.694 131.681Z" fill="url(#paint5_linear)"/>
<path style="mix-blend-mode:screen" d="M193.111 134.858C159.339 115.511 126.308 84.4122 98.6294 45.8997L98.2454 45.6931C70.5665 51.9698 37.5363 44.5824 3.76347 24.5642L2.48323 23.8152L4.30116 48.3278C10.7024 134.574 44.0654 205.374 97.7844 289.218L99.0903 289.993C152.861 268.709 186.147 236.783 192.574 158.002L194.392 135.581L193.111 134.858Z" fill="url(#paint6_radial)"/>
<path d="M190.628 135.865C156.83 116.519 123.799 85.4196 96.146 46.9072L95.762 46.6747C68.0831 52.9514 35.0529 45.5899 1.28006 25.5717L-0.0258179 24.7968L1.81775 49.3352C8.21896 135.581 41.5821 206.407 95.3011 290.225L96.6069 291C150.377 269.716 183.663 237.79 190.09 159.009L191.908 136.589L190.628 135.865Z" fill="url(#paint7_linear)"/>
<path style="mix-blend-mode:color-dodge" d="M190.628 135.865C156.83 116.519 123.799 85.4196 96.146 46.9072L95.762 46.6747C68.0831 52.9514 35.0529 45.5899 1.28006 25.5717L-0.0258179 24.7968L1.81775 49.3352C8.21896 135.581 41.5821 206.407 95.3011 290.225L96.6069 291C150.377 269.716 183.663 237.79 190.09 159.009L191.908 136.589L190.628 135.865Z" fill="url(#paint8_radial)"/>
<path style="mix-blend-mode:color-dodge" d="M190.628 135.865L188.938 134.858L187.12 157.046C180.744 235.491 147.637 267.469 94.3537 288.779C94.6609 289.269 94.9683 289.76 95.3011 290.251L96.6069 291.026C150.377 269.742 183.663 237.816 190.09 159.035L191.908 136.614L190.628 135.865Z" fill="url(#paint9_radial)"/>
<path d="M100.039 278.163C51.7737 201.964 18.5131 133.153 12.2399 48.5603L11.8302 43.2135C33.8504 53.8554 55.6657 59.4089 75.6887 59.4089C80.9591 59.4168 86.2226 59.0282 91.4357 58.2465C118.065 94.1243 148.842 123.028 181.053 142.375L179.772 158.131C173.781 230.558 144.95 258.868 100.039 278.163Z" fill="#F4AF87"/>
<path style="mix-blend-mode:multiply" opacity="0.2" d="M18.9995 47.2946V46.4422C16.6183 45.409 14.2626 44.35 11.8814 43.2135L12.2911 48.5603C18.5643 133.153 51.825 201.964 100.09 278.163C102.087 277.319 104.059 276.458 106.005 275.58C58.1494 199.872 25.2471 131.397 18.9995 47.2946Z" fill="url(#paint10_radial)"/>
<g style="mix-blend-mode:multiply">
<path d="M60.5298 144.312V126.541C60.5345 124.844 60.981 123.178 61.8244 121.71C62.6679 120.242 63.8788 119.024 65.336 118.176C66.7931 117.329 68.4453 116.882 70.1273 116.882C71.8092 116.881 73.4618 117.326 74.9197 118.172L133.043 152.061C135.533 153.505 137.601 155.586 139.04 158.093C140.478 160.601 141.236 163.447 141.236 166.345V184.116C141.237 185.812 140.795 187.478 139.954 188.947C139.114 190.416 137.905 191.636 136.449 192.484C134.994 193.332 133.342 193.779 131.661 193.779C129.98 193.779 128.328 193.333 126.872 192.485L68.7234 158.622C66.2297 157.175 64.1588 155.09 62.7201 152.578C61.2813 150.065 60.5258 147.214 60.5298 144.312Z" fill="#E6E7E8"/>
</g>
<path d="M58.276 145.448V127.677C58.2755 125.981 58.7177 124.315 59.558 122.846C60.3983 121.377 61.6071 120.157 63.063 119.309C64.5188 118.461 66.1704 118.014 67.8516 118.014C69.5328 118.014 71.1844 118.461 72.6404 119.309L130.789 153.172C133.276 154.617 135.341 156.699 136.775 159.207C138.209 161.715 138.962 164.56 138.957 167.456V185.227C138.963 186.922 138.525 188.589 137.688 190.058C136.851 191.528 135.644 192.75 134.189 193.598C132.735 194.447 131.084 194.894 129.403 194.894C127.723 194.893 126.072 194.445 124.618 193.595L66.4696 159.81C63.9684 158.359 61.8926 156.266 60.4534 153.744C59.0142 151.221 58.2629 148.359 58.276 145.448Z" fill="url(#paint11_linear)"/>
<path d="M66.4197 150.253L130.867 187.784V162.651L66.4197 125.12V150.253Z" fill="url(#paint12_linear)"/>
<g style="mix-blend-mode:multiply">
<path d="M71.8224 148.212V128.271L66.4197 125.12V150.253L130.867 187.784V182.592L71.8224 148.212Z" fill="#7A6330"/>
</g>
<path style="mix-blend-mode:multiply" d="M73.4602 154.928L119.062 181.584L70.8997 253.831L34.6177 183.832L73.4602 154.928Z" fill="url(#paint13_linear)"/>
<path d="M116.887 166.887H31.2128V179.079C31.2128 179.079 31.2128 179.311 31.2128 179.415C31.2128 193.311 50.3908 204.573 74.0497 204.573C97.7086 204.573 116.887 193.311 116.887 179.415C116.887 179.415 116.887 179.182 116.887 179.079V166.887Z" fill="url(#paint14_linear)"/>
<g style="mix-blend-mode:multiply">
<path style="mix-blend-mode:multiply" d="M74.0497 201.887C50.3908 201.887 31.2128 190.625 31.2128 176.728V179.079C31.2128 179.079 31.2128 179.311 31.2128 179.415C31.2128 193.311 50.3908 204.573 74.0497 204.573C97.7086 204.573 116.887 193.311 116.887 179.415C116.887 179.415 116.887 179.182 116.887 179.079V176.728C116.887 190.625 97.7086 201.887 74.0497 201.887Z" fill="url(#paint15_linear)"/>
</g>
<g style="mix-blend-mode:multiply">
<g style="mix-blend-mode:multiply">
<path d="M87.1599 203.359L88.3633 203.101V171.175H87.1599V203.359Z" fill="#FDD65B"/>
</g>
<g style="mix-blend-mode:multiply">
<path d="M92.5621 202.093L93.7656 201.758V171.175H92.5621V202.093Z" fill="#FDD65B"/>
</g>
<g style="mix-blend-mode:multiply">
<path d="M97.9391 200.311L99.1426 199.795V171.175H97.9391V200.311Z" fill="#FDD65B"/>
</g>
<g style="mix-blend-mode:multiply">
<path d="M81.7819 204.16H82.9854V171.175H81.7819V204.16Z" fill="#FDD65B"/>
</g>
<g style="mix-blend-mode:multiply">
<path d="M108.693 194.164L109.896 193.182V171.175H108.693V194.164Z" fill="#FDD65B"/>
</g>
<g style="mix-blend-mode:multiply">
<path d="M114.07 188.221C114.525 187.538 114.927 186.822 115.273 186.077V171.173H114.07V188.221Z" fill="#FDD65B"/>
</g>
<g style="mix-blend-mode:multiply">
<path d="M103.265 197.754L104.469 197.108V171.278H103.265V197.754Z" fill="#FDD65B"/>
</g>
<g style="mix-blend-mode:multiply">
<path d="M76.4059 204.521H77.6094V171.175H76.4059V204.521Z" fill="#FDD65B"/>
</g>
<g style="mix-blend-mode:multiply">
<path d="M71.029 204.496H72.2324V171.175H71.029V204.496Z" fill="#FDD65B"/>
</g>
<g style="mix-blend-mode:multiply">
<path d="M60.2751 203.23C60.6591 203.23 61.0688 203.411 61.4785 203.462V171.175H60.2751V203.23Z" fill="#FDD65B"/>
</g>
<g style="mix-blend-mode:multiply">
<path d="M65.6511 204.082H66.8545V171.175H65.6511V204.082Z" fill="#FDD65B"/>
</g>
<g style="mix-blend-mode:multiply">
<path d="M54.8962 201.887L56.0996 202.249V171.253H54.8962V201.887Z" fill="#FDD65B"/>
</g>
<g style="mix-blend-mode:multiply">
<path d="M33.3639 187.267C33.7223 187.931 34.1244 188.569 34.5674 189.178V171.098H33.3639V187.267Z" fill="#FDD65B"/>
</g>
<g style="mix-blend-mode:multiply">
<path d="M38.7399 193.647C39.124 193.983 39.5337 194.293 39.9434 194.603V171.175H38.7399V193.647Z" fill="#FDD65B"/>
</g>
<g style="mix-blend-mode:multiply">
<path d="M49.4948 200.027L50.6982 200.492V171.175H49.4948V200.027Z" fill="#FDD65B"/>
</g>
<g style="mix-blend-mode:multiply">
<path d="M44.1169 197.392L45.3203 198.038V171.175H44.1169V197.392Z" fill="#FDD65B"/>
</g>
</g>
<path d="M116.887 167.068C116.887 180.964 97.7086 192.226 74.0497 192.226C50.3908 192.226 31.2128 180.964 31.2128 167.068C31.2128 153.171 50.3908 141.91 74.0497 141.91C97.7086 141.91 116.887 153.171 116.887 167.068Z" fill="url(#paint16_linear)"/>
<path style="mix-blend-mode:screen" d="M74.0491 191.555C51.0047 191.555 32.0827 180.758 31.289 167.249C31.289 167.559 31.289 167.843 31.289 168.127C31.289 182.023 50.467 193.285 74.1259 193.285C97.7848 193.285 116.963 182.023 116.963 168.127C116.963 167.843 116.963 167.559 116.963 167.249C116.067 180.758 97.1959 191.555 74.0491 191.555Z" fill="url(#paint17_radial)"/>
<path d="M106.081 167.068C106.081 177.4 91.7423 185.872 74.0493 185.872C56.3564 185.872 42.0433 177.452 42.0433 167.068C42.0433 156.684 56.382 148.264 74.0493 148.264C91.7167 148.264 106.081 156.659 106.081 167.068Z" fill="url(#paint18_linear)"/>
<path style="mix-blend-mode:screen" d="M75.0991 149.194C92.2031 149.194 106.132 157.072 107.028 166.99C107.028 166.655 107.028 166.319 107.028 165.983C107.028 155.651 92.7152 147.179 75.0222 147.179C57.3293 147.179 42.9905 155.599 42.9905 165.983C42.9905 166.319 42.9905 166.655 42.9905 166.99C44.0915 157.072 58.0206 149.194 75.0991 149.194Z" fill="url(#paint19_radial)"/>
<path style="mix-blend-mode:multiply" d="M74.0493 150.279C91.1533 150.279 105.082 158.157 105.979 168.075C105.979 167.74 105.979 167.404 105.979 167.068C105.979 156.736 91.6398 148.264 73.9468 148.264C56.2539 148.264 41.9408 156.659 41.9408 167.068C41.9408 167.404 41.9408 167.74 41.9408 168.075C43.0162 158.157 56.9452 150.279 74.0493 150.279Z" fill="url(#paint20_linear)"/>
<path style="mix-blend-mode:color-dodge" d="M54.1285 179.957C63.7559 183.263 70.234 189.85 68.6209 194.654C67.0077 199.459 57.8668 200.673 48.137 197.237C38.4071 193.802 32.0059 187.37 33.6446 182.566C35.2833 177.762 44.373 176.651 54.1285 179.957Z" fill="url(#paint21_radial)"/>
<path style="mix-blend-mode:color-dodge" d="M96.5561 142.814C106.184 146.12 112.662 152.707 111.023 157.511C109.384 162.315 100.294 163.529 90.667 160.094C81.0395 156.659 74.5615 150.227 76.2002 145.423C77.839 140.618 86.9287 139.533 96.5561 142.814Z" fill="url(#paint22_radial)"/>
<g style="mix-blend-mode:multiply">
<path style="mix-blend-mode:multiply" d="M74.945 156.71L72.6662 157.304L70.1057 158.079C69.2095 158.363 68.3133 158.673 67.5452 159.009C66.777 159.345 65.7528 159.732 64.9847 160.146L62.0658 158.441L59.198 160.12L62.0914 161.799C61.139 162.425 60.2773 163.181 59.5309 164.046C58.9372 164.707 58.5149 165.505 58.3019 166.371C58.1254 167.121 58.2254 167.911 58.5835 168.592C59.0846 169.425 59.8018 170.104 60.6575 170.555C61.3944 170.977 62.1878 171.291 63.0131 171.485C63.8544 171.664 64.7149 171.733 65.5736 171.692C66.6616 171.627 67.7415 171.463 68.7999 171.201C69.9777 170.942 71.3603 170.555 72.6918 170.09C73.6392 169.78 74.561 169.444 75.4572 169.109L78.0176 170.581C77.0447 171.02 76.0461 171.407 74.9707 171.769C73.8952 172.131 72.9479 172.389 72.0773 172.596L69.0559 173.293L70.9507 177.891C72.9472 177.458 74.9142 176.898 76.8398 176.212C78.7859 175.519 80.6922 174.717 82.5497 173.81L86.0575 175.85L88.9253 174.171L85.4686 172.156C86.4466 171.53 87.3639 170.812 88.2083 170.013C88.8999 169.385 89.4425 168.608 89.7958 167.74C89.9473 167.385 90.0254 167.002 90.0254 166.616C90.0254 166.23 89.9473 165.847 89.7958 165.492C89.3386 164.569 88.5914 163.824 87.6706 163.374C86.7498 162.843 85.745 162.476 84.7005 162.289C83.6212 162.145 82.5279 162.145 81.4487 162.289C80.2196 162.433 79.0038 162.675 77.8128 163.013C76.5325 163.349 75.2523 163.788 73.6904 164.304L72.743 164.64L71.898 164.95L69.3375 163.452C70.1057 163.116 70.8995 162.806 71.7444 162.522C72.5894 162.238 73.3575 162.005 74.1 161.825C74.8426 161.644 75.7899 161.411 76.6605 161.256L74.945 156.71ZM67.2636 164.459L69.44 165.725C68.9234 165.891 68.3916 166.003 67.8525 166.061C67.4897 166.106 67.1219 166.034 66.8027 165.854C66.2906 165.492 66.4954 165.002 67.4172 164.382L67.2636 164.459ZM80.8086 168.721C80.572 169.09 80.2459 169.393 79.8611 169.599L77.7359 168.385C78.2854 168.206 78.8517 168.085 79.4259 168.024C79.8082 167.954 80.2025 168.009 80.5525 168.179C80.6521 168.203 80.7389 168.265 80.7958 168.351C80.8527 168.437 80.8755 168.541 80.8597 168.644L80.8086 168.721Z" fill="url(#paint23_linear)"/>
</g>
<path d="M74.946 155.625L72.6671 156.245C71.8477 156.478 71.0028 156.71 70.1066 156.994C69.2104 157.278 68.3143 157.588 67.5461 157.924C66.778 158.26 65.7538 158.647 64.9856 159.061L62.0667 157.382L59.199 159.061L62.0924 160.74C61.1353 161.349 60.2726 162.098 59.5319 162.961C58.9382 163.622 58.5159 164.42 58.3028 165.286C58.1263 166.036 58.2264 166.826 58.5844 167.507C59.0782 168.346 59.7972 169.027 60.6584 169.47C61.3903 169.903 62.1853 170.217 63.0141 170.4C63.8553 170.579 64.7158 170.648 65.5746 170.607C66.6605 170.538 67.7394 170.383 68.8008 170.142C69.9786 169.858 71.3613 169.496 72.6927 169.005C73.6401 168.695 74.5619 168.385 75.4581 168.024L78.0186 169.496C77.0277 169.954 76.0102 170.351 74.9716 170.684C73.9218 171.02 72.9488 171.304 72.0782 171.537C71.2077 171.769 70.0555 172.027 69.0569 172.208L70.9516 176.806C72.9511 176.386 74.9189 175.825 76.8407 175.127C78.7952 174.456 80.7028 173.654 82.5506 172.725L86.0585 174.765L88.9262 173.086L85.4695 171.072C86.4409 170.446 87.3575 169.737 88.2093 168.954C88.8904 168.316 89.4312 167.542 89.7968 166.681C89.9489 166.321 90.0273 165.935 90.0273 165.544C90.0273 165.153 89.9489 164.767 89.7968 164.408C89.3447 163.487 88.5951 162.749 87.6716 162.315C86.7572 161.765 85.7505 161.388 84.7014 161.205C83.6222 161.061 82.5289 161.061 81.4496 161.205C80.2205 161.348 79.0047 161.59 77.8137 161.928C76.5335 162.264 75.2532 162.703 73.6914 163.219L72.7439 163.555L71.899 163.865L69.3385 162.367C70.1066 162.031 70.9004 161.721 71.7454 161.437L74.101 160.74C74.9715 160.533 75.7909 160.326 76.6614 160.171L74.946 155.625ZM67.2645 163.374L69.4409 164.64C68.9277 164.818 68.3944 164.931 67.8534 164.976C67.4934 165.029 67.1257 164.966 66.8036 164.795C66.3171 164.382 66.4707 163.917 67.4181 163.297L67.2645 163.374ZM80.8607 167.559C80.6241 167.928 80.2981 168.23 79.9133 168.437L77.7881 167.197C78.3407 167.03 78.9059 166.909 79.478 166.836C79.8603 166.766 80.2546 166.82 80.6046 166.991C80.8607 167.171 80.9375 167.352 80.8607 167.559Z" fill="url(#paint24_linear)"/>
<path style="mix-blend-mode:color-dodge" d="M74.946 155.625L72.6671 156.245C71.8477 156.478 71.0028 156.71 70.1066 156.994C69.2104 157.278 68.3143 157.588 67.5461 157.924C66.778 158.26 65.7538 158.647 64.9856 159.061L62.0667 157.382L59.199 159.061L62.0924 160.74C61.1353 161.349 60.2726 162.098 59.5319 162.961C58.9382 163.622 58.5159 164.42 58.3028 165.286C58.1263 166.036 58.2264 166.826 58.5844 167.507C59.0782 168.346 59.7972 169.027 60.6584 169.47C61.3903 169.903 62.1853 170.217 63.0141 170.4C63.8553 170.579 64.7158 170.648 65.5746 170.607C66.6605 170.538 67.7394 170.383 68.8008 170.142C69.9786 169.858 71.3613 169.496 72.6927 169.005C73.6401 168.695 74.5619 168.385 75.4581 168.024L78.0186 169.496C77.0277 169.954 76.0102 170.351 74.9716 170.684C73.9218 171.02 72.9488 171.304 72.0782 171.537C71.2077 171.769 70.0555 172.027 69.0569 172.208L70.9516 176.806C72.9511 176.386 74.9189 175.825 76.8407 175.127C78.7952 174.456 80.7028 173.654 82.5506 172.725L86.0585 174.765L88.9262 173.086L85.4695 171.072C86.4409 170.446 87.3575 169.737 88.2093 168.954C88.8904 168.316 89.4312 167.542 89.7968 166.681C89.9489 166.321 90.0273 165.935 90.0273 165.544C90.0273 165.153 89.9489 164.767 89.7968 164.408C89.3447 163.487 88.5951 162.749 87.6716 162.315C86.7572 161.765 85.7505 161.388 84.7014 161.205C83.6222 161.061 82.5289 161.061 81.4496 161.205C80.2205 161.348 79.0047 161.59 77.8137 161.928C76.5335 162.264 75.2532 162.703 73.6914 163.219L72.7439 163.555L71.899 163.865L69.3385 162.367C70.1066 162.031 70.9004 161.721 71.7454 161.437L74.101 160.74C74.9715 160.533 75.7909 160.326 76.6614 160.171L74.946 155.625ZM67.2645 163.374L69.4409 164.64C68.9277 164.818 68.3944 164.931 67.8534 164.976C67.4934 165.029 67.1257 164.966 66.8036 164.795C66.3171 164.382 66.4707 163.917 67.4181 163.297L67.2645 163.374ZM80.8607 167.559C80.6241 167.928 80.2981 168.23 79.9133 168.437L77.7881 167.197C78.3407 167.03 78.9059 166.909 79.478 166.836C79.8603 166.766 80.2546 166.82 80.6046 166.991C80.8607 167.171 80.9375 167.352 80.8607 167.559Z" fill="url(#paint25_radial)"/>
</g>
<defs>
<linearGradient id="paint0_linear" x1="58.7375" y1="-9.01464" x2="199.153" y2="235.986" gradientUnits="userSpaceOnUse">
<stop stop-color="#18065F"/>
<stop offset="0.07" stop-color="#8A6EB3"/>
<stop offset="0.08" stop-color="#AE90A7"/>
<stop offset="0.1" stop-color="#CEAE9D"/>
<stop offset="0.11" stop-color="#E5C496"/>
<stop offset="0.13" stop-color="#F2D192"/>
<stop offset="0.14" stop-color="#F7D590"/>
<stop offset="0.22" stop-color="#FAE59A"/>
<stop offset="0.32" stop-color="#FDF2A3"/>
<stop offset="0.41" stop-color="#FEF7A6"/>
<stop offset="0.55" stop-color="#F9E296"/>
<stop offset="0.69" stop-color="#F5D38B"/>
<stop offset="0.81" stop-color="#F4CE87"/>
</linearGradient>
<linearGradient id="paint1_linear" x1="86.8261" y1="-25.1325" x2="227.241" y2="219.842" gradientUnits="userSpaceOnUse">
<stop offset="0.06" stop-color="#F7C290"/>
<stop offset="0.17" stop-color="#FBD59B"/>
<stop offset="0.3" stop-color="#FDE2A3"/>
<stop offset="0.41" stop-color="#FEE7A6"/>
<stop offset="0.55" stop-color="#F9D095"/>
<stop offset="0.69" stop-color="#F5C18B"/>
<stop offset="0.81" stop-color="#F4BC87"/>
</linearGradient>
<linearGradient id="paint2_linear" x1="66.0349" y1="1.42063" x2="209.462" y2="176.507" gradientUnits="userSpaceOnUse">
<stop offset="0.01" stop-color="#F7D590"/>
<stop offset="0.25" stop-color="#F9DB96"/>
<stop offset="0.56" stop-color="#FEECA6"/>
<stop offset="1" stop-color="#F4C187"/>
</linearGradient>
<radialGradient id="paint3_radial" cx="0" cy="0" r="1" gradientUnits="userSpaceOnUse" gradientTransform="translate(46.5234 -13.6641) scale(65.2155 65.7888)">
<stop stop-color="#FFE9A7"/>
<stop offset="0.04" stop-color="#E9D598"/>
<stop offset="0.15" stop-color="#B3A375"/>
<stop offset="0.26" stop-color="#837856"/>
<stop offset="0.37" stop-color="#5B533B"/>
<stop offset="0.49" stop-color="#3A3526"/>
<stop offset="0.6" stop-color="#201E15"/>
<stop offset="0.73" stop-color="#0E0D09"/>
<stop offset="0.85" stop-color="#030302"/>
<stop offset="1"/>
</radialGradient>
<linearGradient id="paint4_linear" x1="40.7114" y1="1.29144" x2="181.127" y2="246.292" gradientUnits="userSpaceOnUse">
<stop offset="0.06" stop-color="#F7D590"/>
<stop offset="0.17" stop-color="#FBE99B"/>
<stop offset="0.3" stop-color="#FDF6A3"/>
<stop offset="0.41" stop-color="#FEFBA6"/>
<stop offset="0.55" stop-color="#F9E495"/>
<stop offset="0.69" stop-color="#F5D58B"/>
<stop offset="0.81" stop-color="#F4D087"/>
</linearGradient>
<linearGradient id="paint5_linear" x1="51.4912" y1="16.0145" x2="188.269" y2="183.022" gradientUnits="userSpaceOnUse">
<stop offset="0.01" stop-color="#F7C990"/>
<stop offset="0.18" stop-color="#F8CF93"/>
<stop offset="0.4" stop-color="#FBE19D"/>
<stop offset="0.56" stop-color="#FEF1A6"/>
<stop offset="1" stop-color="#F4C187"/>
</linearGradient>
<radialGradient id="paint6_radial" cx="0" cy="0" r="1" gradientUnits="userSpaceOnUse" gradientTransform="translate(169.222 118.198) scale(155.14 156.504)">
<stop offset="0.36" stop-color="white"/>
<stop offset="0.43" stop-color="#E1E1E1"/>
<stop offset="0.64" stop-color="#828282"/>
<stop offset="0.81" stop-color="#3C3C3C"/>
<stop offset="0.94" stop-color="#111111"/>
<stop offset="1"/>
</radialGradient>
<linearGradient id="paint7_linear" x1="57.4827" y1="31.3059" x2="182.558" y2="310.827" gradientUnits="userSpaceOnUse">
<stop stop-color="#FFF3A7"/>
<stop offset="0.11" stop-color="#FDE8A0"/>
<stop offset="0.41" stop-color="#F8D092"/>
<stop offset="0.69" stop-color="#F5C18A"/>
<stop offset="0.92" stop-color="#F4BC87"/>
</linearGradient>
<radialGradient id="paint8_radial" cx="0" cy="0" r="1" gradientUnits="userSpaceOnUse" gradientTransform="translate(160.465 289.967) scale(127.103 128.22)">
<stop stop-color="#92402E"/>
<stop offset="1"/>
</radialGradient>
<radialGradient id="paint9_radial" cx="0" cy="0" r="1" gradientUnits="userSpaceOnUse" gradientTransform="translate(175.931 290.406) scale(64.6011 65.1689)">
<stop stop-color="#FF63CE"/>
<stop offset="1"/>
</radialGradient>
<radialGradient id="paint10_radial" cx="0" cy="0" r="1" gradientUnits="userSpaceOnUse" gradientTransform="translate(45.0909 213.795) scale(88.8233 148.743)">
<stop offset="0.14" stop-color="#25166D"/>
<stop offset="0.22" stop-color="#2C1D72"/>
<stop offset="0.34" stop-color="#3E317E"/>
<stop offset="0.48" stop-color="#5D5293"/>
<stop offset="0.64" stop-color="#887FAF"/>
<stop offset="0.82" stop-color="#BEBAD4"/>
<stop offset="1" stop-color="white"/>
</radialGradient>
<linearGradient id="paint11_linear" x1="58.3016" y1="156.452" x2="138.983" y2="156.452" gradientUnits="userSpaceOnUse">
<stop offset="0.02" stop-color="#F8D992"/>
<stop offset="0.21" stop-color="#FBE19A"/>
<stop offset="0.38" stop-color="#FEECA6"/>
<stop offset="0.6" stop-color="#FFF9D1"/>
<stop offset="0.7" stop-color="#FEF1C9"/>
<stop offset="0.85" stop-color="#FBDBB2"/>
<stop offset="1" stop-color="#F8BF94"/>
</linearGradient>
<linearGradient id="paint12_linear" x1="66.4197" y1="156.452" x2="130.867" y2="156.452" gradientUnits="userSpaceOnUse">
<stop stop-color="#3D065F"/>
<stop offset="1" stop-color="#10054D"/>
</linearGradient>
<linearGradient id="paint13_linear" x1="93.3296" y1="215.964" x2="60.6654" y2="151.231" gradientUnits="userSpaceOnUse">
<stop stop-color="white"/>
<stop offset="1"/>
</linearGradient>
<linearGradient id="paint14_linear" x1="31.6481" y1="185.743" x2="115.939" y2="185.743" gradientUnits="userSpaceOnUse">
<stop stop-color="#FFBB96"/>
<stop offset="0.23" stop-color="#FFFBC9"/>
<stop offset="0.54" stop-color="#F9B673"/>
<stop offset="0.64" stop-color="#F9B876"/>
<stop offset="0.72" stop-color="#FABE81"/>
<stop offset="0.81" stop-color="#FCC993"/>
<stop offset="0.86" stop-color="#FED2A3"/>
<stop offset="0.97" stop-color="#FFC28C"/>
</linearGradient>
<linearGradient id="paint15_linear" x1="153270" y1="5716.14" x2="150450" y2="5716.14" gradientUnits="userSpaceOnUse">
<stop stop-color="#FFBB96"/>
<stop offset="0.23" stop-color="#FFFBC9"/>
<stop offset="0.54" stop-color="#F9B673"/>
<stop offset="0.64" stop-color="#F9B876"/>
<stop offset="0.72" stop-color="#FABE81"/>
<stop offset="0.81" stop-color="#FCC993"/>
<stop offset="0.86" stop-color="#FED2A3"/>
<stop offset="0.97" stop-color="#FFC28C"/>
</linearGradient>
<linearGradient id="paint16_linear" x1="153.194" y1="86.7112" x2="68.6775" y2="171.03" gradientUnits="userSpaceOnUse">
<stop offset="0.04" stop-color="#FFBA78"/>
<stop offset="0.4" stop-color="#FFC987"/>
<stop offset="1" stop-color="#FEECA8"/>
</linearGradient>
<radialGradient id="paint17_radial" cx="0" cy="0" r="1" gradientUnits="userSpaceOnUse" gradientTransform="translate(-146920 5295.66) scale(1800.87 547.288)">
<stop stop-color="white"/>
<stop offset="1"/>
</radialGradient>
<linearGradient id="paint18_linear" x1="112660" y1="6777.87" x2="113461" y2="8150.15" gradientUnits="userSpaceOnUse">
<stop offset="0.04" stop-color="#FFBA78"/>
<stop offset="0.4" stop-color="#FFC987"/>
<stop offset="1" stop-color="#FEECA8"/>
</linearGradient>
<radialGradient id="paint19_radial" cx="0" cy="0" r="1" gradientUnits="userSpaceOnUse" gradientTransform="translate(-107598 3749.51) scale(592.349 183.257)">
<stop stop-color="white"/>
<stop offset="1"/>
</radialGradient>
<linearGradient id="paint20_linear" x1="112372" y1="3535.05" x2="112629" y2="4370.63" gradientUnits="userSpaceOnUse">
<stop stop-color="#FFBB96"/>
<stop offset="0.23" stop-color="#FFFBC9"/>
<stop offset="0.54" stop-color="#F9B673"/>
<stop offset="0.64" stop-color="#F9B876"/>
<stop offset="0.72" stop-color="#FABE81"/>
<stop offset="0.81" stop-color="#FCC993"/>
<stop offset="0.86" stop-color="#FED2A3"/>
<stop offset="0.97" stop-color="#FFC28C"/>
</linearGradient>
<radialGradient id="paint21_radial" cx="0" cy="0" r="1" gradientUnits="userSpaceOnUse" gradientTransform="translate(-45.912 141.794) rotate(-70.5045) scale(9.10697 18.6637)">
<stop stop-color="#F49587"/>
<stop offset="0.12" stop-color="#BD7368"/>
<stop offset="0.24" stop-color="#8B554D"/>
<stop offset="0.36" stop-color="#603B35"/>
<stop offset="0.48" stop-color="#3E2622"/>
<stop offset="0.61" stop-color="#231513"/>
<stop offset="0.74" stop-color="#0F0908"/>
<stop offset="0.86" stop-color="#040202"/>
<stop offset="1"/>
</radialGradient>
<radialGradient id="paint22_radial" cx="0" cy="0" r="1" gradientUnits="userSpaceOnUse" gradientTransform="translate(-384685 -348402) rotate(180) scale(838.725 501.525)">
<stop stop-color="#F49587"/>
<stop offset="0.12" stop-color="#BD7368"/>
<stop offset="0.24" stop-color="#8B554D"/>
<stop offset="0.36" stop-color="#603B35"/>
<stop offset="0.48" stop-color="#3E2622"/>
<stop offset="0.61" stop-color="#231513"/>
<stop offset="0.74" stop-color="#0F0908"/>
<stop offset="0.86" stop-color="#040202"/>
<stop offset="1"/>
</radialGradient>
<linearGradient id="paint23_linear" x1="56623.8" y1="4178.89" x2="56227.2" y2="4178.89" gradientUnits="userSpaceOnUse">
<stop stop-color="#FFBB96"/>
<stop offset="0.23" stop-color="#FFFBC9"/>
<stop offset="0.54" stop-color="#F9B673"/>
<stop offset="0.64" stop-color="#F9B876"/>
<stop offset="0.72" stop-color="#FABE81"/>
<stop offset="0.81" stop-color="#FCC993"/>
<stop offset="0.86" stop-color="#FED2A3"/>
<stop offset="0.97" stop-color="#FFC28C"/>
</linearGradient>
<linearGradient id="paint24_linear" x1="56038.7" y1="4026.15" x2="56301.2" y2="4241.27" gradientUnits="userSpaceOnUse">
<stop offset="0.04" stop-color="#FFBA78"/>
<stop offset="0.4" stop-color="#FFC987"/>
<stop offset="1" stop-color="#FEECA8"/>
</linearGradient>
<radialGradient id="paint25_radial" cx="0" cy="0" r="1" gradientUnits="userSpaceOnUse" gradientTransform="translate(-51151.9 4186.28) scale(354.995 236.375)">
<stop stop-color="#F49587"/>
<stop offset="0.12" stop-color="#BD7368"/>
<stop offset="0.24" stop-color="#8B554D"/>
<stop offset="0.36" stop-color="#603B35"/>
<stop offset="0.48" stop-color="#3E2622"/>
<stop offset="0.61" stop-color="#231513"/>
<stop offset="0.74" stop-color="#0F0908"/>
<stop offset="0.86" stop-color="#040202"/>
<stop offset="1"/>
</radialGradient>
<clipPath id="clip0">
<rect width="236" height="291" fill="white" transform="matrix(-1 0 0 1 236 0)"/>
</clipPath>
</defs>
</svg>
