<svg width="34" height="24" viewBox="0 0 30 24" fill="none" xmlns="http://www.w3.org/2000/svg">
<g clip-path="url(#clip0)">
<path d="M27.9337 17.3656V20.7898H28.3622C29.2653 20.7898 29.9923 20.0637 30 19.1694V15.0344L28.8138 16.5631C28.5612 16.8688 28.2627 17.144 27.9337 17.3656Z" fill="#C4CCF0"/>
<path d="M25.9898 17.9541H21.5816C19.1786 17.9465 17.227 15.9975 17.227 13.5975C17.227 11.1975 19.1786 9.24841 21.5816 9.24841H25.9974C26.1276 9.24841 26.2653 9.23312 26.4031 9.20255V4.83057C26.4031 3.92866 25.6684 3.21019 24.773 3.21019H1.63776C0.734694 3.21019 0.00765306 3.9363 0 4.83057V22.3567C0.00765306 23.2586 0.734694 23.9924 1.63776 24H24.773C25.676 23.9924 26.4031 23.2586 26.4031 22.3567L26.3954 17.9159C26.2653 17.9312 26.1276 17.9465 25.9898 17.9541Z" fill="#C4CCF0"/>
<path d="M28.3622 0H5.22703C4.32396 0.00764331 3.59692 0.741401 3.59692 1.64331V1.68153H24.7729C26.5178 1.68153 27.9337 3.0879 27.9337 4.83057V8.02548L30 5.3656V1.64331C29.9923 0.741401 29.2653 0.00764331 28.3622 0Z" fill="#C4CCF0"/>
<path d="M28.8061 9.39364C28.4617 9.83695 28.0178 10.1962 27.5127 10.4331C27.0382 10.6624 26.5178 10.7771 25.9898 10.7771H21.5816C20.0204 10.7847 18.7576 12.0459 18.7576 13.6051C18.7576 15.1643 20.0204 16.4255 21.5816 16.4331H25.9974C26.625 16.4255 27.2219 16.135 27.6046 15.6382L30 12.535L29.9923 7.86497L28.8061 9.39364ZM23.2959 14.3694H21.4592C21.0382 14.3694 20.6939 14.0255 20.6939 13.6051C20.6939 13.1847 21.0382 12.8408 21.4592 12.8408H23.2959C23.7168 12.8408 24.0612 13.1847 24.0612 13.6051C24.0612 14.0255 23.7168 14.3694 23.2959 14.3694Z" fill="#C4CCF0"/>
</g>
<defs>
<clipPath id="clip0">
<rect width="34" height="24" fill="white"/>
</clipPath>
</defs>
</svg>
