<svg width="135" height="161" viewBox="0 0 135 161" fill="none" xmlns="http://www.w3.org/2000/svg">
<g clip-path="url(#clip0)">
<g opacity="0.9">
<path opacity="0.9" d="M67.2922 83.2761C30.014 83.2101 -0.113189 100.534 0.000319696 121.987L42.727 122.063C42.727 118.415 45.1107 114.786 49.9253 112.015C59.5641 106.463 75.2473 106.492 84.9239 112.072C94.6006 117.652 94.6762 126.662 85.0469 132.214L115.363 149.652C128.499 142.111 135.038 132.971 134.981 122.232C134.896 100.751 104.57 83.342 67.2922 83.2761Z" fill="url(#paint0_linear)"/>
<path opacity="0.9" d="M42.7078 71.588L0 71.5032V122.044H42.7078V71.588Z" fill="url(#paint1_linear)"/>
<path opacity="0.9" d="M49.9255 112.062C59.5643 106.51 75.2474 106.538 84.9241 112.118C89.7198 114.88 92.1508 118.481 92.217 122.081V71.8237C92.2643 68.1383 89.8333 64.4246 84.9241 61.6063C75.2285 56.0263 59.5454 55.998 49.9255 61.5403C45.1959 64.2737 42.7839 67.8555 42.7366 71.4561V122.081C42.7082 118.434 45.1014 114.786 49.9255 112.062Z" fill="url(#paint2_linear)"/>
<path opacity="0.9" d="M93.0967 113.947H42.623V121.045C42.623 121.111 42.623 121.177 42.623 121.252C42.623 129.339 53.9266 135.89 67.8599 135.89C81.7931 135.89 93.0967 129.339 93.0967 121.252C93.0967 121.177 93.0967 121.111 93.0967 121.045V113.947Z" fill="url(#paint3_linear)"/>
<g style="mix-blend-mode:multiply" opacity="0.9">
<path style="mix-blend-mode:multiply" opacity="0.9" d="M67.8599 134.344C53.9266 134.344 42.623 127.746 42.623 119.697V121.063C42.623 121.129 42.623 121.195 42.623 121.271C42.623 129.358 53.9266 135.909 67.8599 135.909C81.7931 135.909 93.0967 129.358 93.0967 121.271C93.0967 121.195 93.0967 121.129 93.0967 121.063V119.697C93.0967 127.784 81.8026 134.344 67.8599 134.344Z" fill="url(#paint4_linear)"/>
<path style="mix-blend-mode:multiply" opacity="0.9" d="M93.097 120.328V120.121C93.0875 120.196 93.097 120.262 93.097 120.328Z" fill="url(#paint5_linear)"/>
</g>
<g style="mix-blend-mode:multiply" opacity="0.9">
<g style="mix-blend-mode:multiply" opacity="0.9">
<path d="M75.5879 135.202L76.2973 135.051V116.464H75.5879V135.202Z" fill="#FDD65B"/>
</g>
<g style="mix-blend-mode:multiply" opacity="0.9">
<path d="M78.7666 134.457C79.0031 134.391 79.2395 134.335 79.4666 134.259V116.464H78.7666V134.457Z" fill="#FDD65B"/>
</g>
<g style="mix-blend-mode:multiply" opacity="0.9">
<path d="M81.9258 133.42L82.6257 133.119V116.464H81.9258V133.42Z" fill="#FDD65B"/>
</g>
<g style="mix-blend-mode:multiply" opacity="0.9">
<path d="M72.4668 135.626L73.1762 135.56V116.464H72.4668V135.626Z" fill="#FDD65B"/>
</g>
<g style="mix-blend-mode:multiply" opacity="0.9">
<path d="M88.2725 129.858C88.5089 129.66 88.7549 129.471 88.9819 129.273V116.464H88.2725V129.858Z" fill="#FDD65B"/>
</g>
<g style="mix-blend-mode:multiply" opacity="0.9">
<path d="M91.4414 126.445C91.7032 126.046 91.9401 125.63 92.1508 125.201V116.464H91.4414V126.445Z" fill="#FDD65B"/>
</g>
<g style="mix-blend-mode:multiply" opacity="0.9">
<path d="M85.1035 131.941L85.8129 131.554V116.473H85.1035V131.941Z" fill="#FDD65B"/>
</g>
<g style="mix-blend-mode:multiply" opacity="0.9">
<path d="M69.25 135.871H69.9594V116.464H69.25V135.871Z" fill="#FDD65B"/>
</g>
<g style="mix-blend-mode:multiply" opacity="0.9">
<path d="M66.082 135.862H66.7915V116.445H66.082V135.862Z" fill="#FDD65B"/>
</g>
<g style="mix-blend-mode:multiply" opacity="0.9">
<path d="M59.7441 135.117L60.4536 135.268V116.464H59.7441V135.117Z" fill="#FDD65B"/>
</g>
<g style="mix-blend-mode:multiply" opacity="0.9">
<path d="M62.9131 135.626C63.1401 135.626 63.386 135.626 63.6225 135.683V116.464H62.9131V135.626Z" fill="#FDD65B"/>
</g>
<g style="mix-blend-mode:multiply" opacity="0.9">
<path d="M56.5752 134.344C56.8022 134.42 57.0387 134.486 57.2752 134.542V116.464H56.5752V134.344Z" fill="#FDD65B"/>
</g>
<g style="mix-blend-mode:multiply" opacity="0.9">
<path d="M43.8906 125.823C44.1079 126.209 44.3447 126.583 44.6001 126.945V116.464H43.8906V125.823Z" fill="#FDD65B"/>
</g>
<g style="mix-blend-mode:multiply" opacity="0.9">
<path d="M47.0596 129.546C47.2866 129.735 47.5325 129.914 47.769 130.103V116.464H47.0596V129.546Z" fill="#FDD65B"/>
</g>
<g style="mix-blend-mode:multiply" opacity="0.9">
<path d="M53.3975 133.26L54.1069 133.534V116.464H53.3975V133.26Z" fill="#FDD65B"/>
</g>
<g style="mix-blend-mode:multiply" opacity="0.9">
<path d="M50.2285 131.733C50.4555 131.865 50.7015 131.978 50.9379 132.11V116.464H50.2285V131.733Z" fill="#FDD65B"/>
</g>
</g>
<path opacity="0.9" d="M67.8599 128.717C81.7978 128.717 93.0967 122.159 93.0967 114.07C93.0967 105.98 81.7978 99.4221 67.8599 99.4221C53.922 99.4221 42.623 105.98 42.623 114.07C42.623 122.159 53.922 128.717 67.8599 128.717Z" fill="url(#paint6_linear)"/>
<path style="mix-blend-mode:screen" opacity="0.9" d="M67.8595 128.321C54.2195 128.321 43.1334 122.034 42.6699 114.183C42.6699 114.353 42.6699 114.513 42.6699 114.692C42.6699 122.779 53.9641 129.33 67.8973 129.33C81.8305 129.33 93.1341 122.779 93.1341 114.692C93.1341 114.513 93.1341 114.353 93.0868 114.183C92.5855 122.034 81.4995 128.321 67.8595 128.321Z" fill="url(#paint7_radial)"/>
<path opacity="0.9" d="M67.8595 125.013C78.2763 125.013 86.7209 120.113 86.7209 114.07C86.7209 108.026 78.2763 103.126 67.8595 103.126C57.4426 103.126 48.998 108.026 48.998 114.07C48.998 120.113 57.4426 125.013 67.8595 125.013Z" fill="url(#paint8_linear)"/>
<path style="mix-blend-mode:screen" opacity="0.9" d="M68.4939 103.673C78.5678 103.673 86.7783 108.263 87.308 114.041C87.308 113.843 87.3553 113.655 87.3553 113.457C87.3553 107.406 78.9083 102.504 68.4939 102.504C58.0794 102.504 49.623 107.406 49.623 113.457C49.623 113.655 49.623 113.843 49.6798 114.041C50.2095 108.292 58.4105 103.673 68.4939 103.673Z" fill="url(#paint9_radial)"/>
<path style="mix-blend-mode:multiply" opacity="0.9" d="M67.8595 104.305C77.9428 104.305 86.1439 108.885 86.6736 114.673C86.6736 114.484 86.7209 114.286 86.7209 114.088C86.7209 108.047 78.2834 103.145 67.8595 103.145C57.4356 103.145 48.998 108.047 48.998 114.088C48.998 114.286 48.998 114.484 49.0453 114.673C49.575 108.885 57.7855 104.305 67.8595 104.305Z" fill="url(#paint10_linear)"/>
<path style="mix-blend-mode:color-dodge" opacity="0.9" d="M56.1211 121.582C61.7966 123.467 65.5802 127.331 64.6343 130.131C63.6884 132.93 58.3062 133.637 52.6402 131.714C46.9742 129.792 43.1811 125.965 44.127 123.165C45.0729 120.366 50.4551 119.659 56.1211 121.582Z" fill="url(#paint11_radial)"/>
<path style="mix-blend-mode:color-dodge" opacity="0.9" d="M81.1123 99.9688C86.7878 101.854 90.5714 105.718 89.6255 108.518C88.6796 111.317 83.2974 112.024 77.6219 110.101C71.9465 108.179 68.1628 104.352 69.1087 101.552C70.0546 98.7529 75.4463 98.0459 81.1123 99.9688Z" fill="url(#paint12_radial)"/>
<g style="mix-blend-mode:multiply" opacity="0.9">
<path style="mix-blend-mode:multiply" opacity="0.9" d="M69.3166 110.629C68.8531 110.723 68.3707 110.837 67.8599 110.968C67.3491 111.1 66.9613 111.214 66.4694 111.374C65.9775 111.534 65.5235 111.713 65.0505 111.911L66.564 112.778L67.0558 112.599L67.6139 112.411C68.4747 112.109 69.2882 111.855 70.0449 111.647C70.7478 111.452 71.4662 111.316 72.1921 111.242C72.8218 111.169 73.4587 111.185 74.0839 111.289C74.7007 111.398 75.2932 111.615 75.8339 111.93C76.3764 112.19 76.8184 112.621 77.0919 113.155C77.1809 113.364 77.2268 113.588 77.2268 113.815C77.2268 114.042 77.1809 114.266 77.0919 114.475C76.8749 114.977 76.5523 115.427 76.146 115.794C75.6507 116.259 75.1123 116.675 74.538 117.039L76.5811 118.207L74.888 119.15L72.8164 117.953C71.7276 118.493 70.6061 118.965 69.4585 119.367C68.3192 119.754 67.1566 120.069 65.9775 120.309L64.8992 117.717C65.4667 117.604 66.0532 117.472 66.668 117.312C67.2829 117.152 67.7464 117.029 68.3707 116.822C68.9819 116.634 69.5793 116.404 70.1584 116.134L68.6828 115.285C68.1531 115.483 67.6045 115.672 67.0464 115.851C66.2045 116.134 65.4383 116.351 64.7478 116.511C64.1259 116.654 63.4931 116.745 62.856 116.784C62.3232 116.813 61.7889 116.772 61.2669 116.662C60.7833 116.549 60.3183 116.368 59.8859 116.124C59.3718 115.869 58.9442 115.469 58.6562 114.974C58.4473 114.578 58.3869 114.12 58.4859 113.683C58.6206 113.184 58.8699 112.722 59.2143 112.335C59.6501 111.839 60.1494 111.401 60.6993 111.034L59.0062 110.092L60.6993 109.149L62.4114 110.139C62.9222 109.894 63.4425 109.668 63.9722 109.47C64.5019 109.272 65.0221 109.093 65.5424 108.923C66.0626 108.753 66.564 108.612 67.0464 108.49L68.3896 108.131L69.3166 110.629ZM63.6411 113.325C63.8308 113.431 64.0495 113.474 64.2654 113.447C64.587 113.416 64.9042 113.35 65.2113 113.25L63.9344 112.514C63.3857 112.872 63.3006 113.146 63.6222 113.325H63.6411ZM71.7475 114.673C71.5381 114.575 71.3032 114.546 71.0759 114.588C70.7548 114.627 70.4381 114.697 70.13 114.795L71.3692 115.512C71.5962 115.393 71.7884 115.217 71.9273 115.003C71.9387 114.968 71.9424 114.931 71.9383 114.895C71.9343 114.859 71.9224 114.824 71.9036 114.793C71.8847 114.761 71.8594 114.734 71.8292 114.714C71.799 114.693 71.7647 114.679 71.7286 114.673H71.7475Z" fill="url(#paint13_linear)"/>
</g>
<path opacity="0.9" d="M69.3166 110.007C68.8531 110.092 68.3707 110.205 67.8599 110.337C67.3491 110.469 66.9613 110.582 66.4694 110.742C65.9775 110.903 65.5235 111.082 65.0505 111.28L66.564 112.156C66.7246 112.088 66.8888 112.028 67.0558 111.977C67.245 111.921 67.4247 111.855 67.6139 111.779C68.4747 111.478 69.2882 111.223 70.0449 111.025C70.7487 110.831 71.4666 110.693 72.1921 110.61C72.8224 110.545 73.4587 110.564 74.0839 110.667C74.7019 110.771 75.2951 110.989 75.8339 111.308C76.3802 111.563 76.8237 111.995 77.0919 112.533C77.1807 112.74 77.2264 112.963 77.2264 113.188C77.2264 113.414 77.1807 113.636 77.0919 113.843C76.8764 114.347 76.5537 114.797 76.146 115.163C75.6555 115.633 75.1165 116.05 74.538 116.407L76.5811 117.585L74.888 118.528L72.8164 117.34C71.7274 117.877 70.6059 118.346 69.4585 118.745C68.3206 119.136 67.1577 119.451 65.9775 119.687L64.8992 117.067C65.4667 116.954 66.0532 116.822 66.668 116.671C67.2829 116.52 67.7464 116.379 68.3707 116.181C68.9805 115.989 69.5775 115.759 70.1584 115.493L68.6828 114.635C68.1531 114.843 67.6045 115.031 67.0464 115.21C66.2045 115.484 65.4383 115.71 64.7478 115.861C64.1277 116.013 63.494 116.104 62.856 116.134C62.3231 116.168 61.7882 116.127 61.2669 116.011C60.7807 115.907 60.3145 115.725 59.8859 115.474C59.3725 115.223 58.9448 114.826 58.6562 114.334C58.4473 113.937 58.3869 113.479 58.4859 113.042C58.6186 112.542 58.8682 112.08 59.2143 111.694C59.6501 111.198 60.1494 110.761 60.6993 110.394L59.0062 109.451L60.6993 108.509L62.4114 109.498C62.9222 109.253 63.4425 109.036 63.9722 108.838C64.5019 108.64 65.0221 108.452 65.5424 108.292C66.0626 108.132 66.564 107.981 67.0464 107.849L68.3896 107.5L69.3166 110.007ZM63.6411 112.703C63.8333 112.802 64.0506 112.841 64.2654 112.816C64.587 112.785 64.9042 112.718 65.2113 112.618L63.9344 111.883C63.3857 112.241 63.3006 112.514 63.6222 112.703H63.6411ZM71.7475 114.051C71.5391 113.95 71.3042 113.917 71.0759 113.957C70.7555 114 70.4392 114.069 70.13 114.164L71.3692 114.89C71.5954 114.766 71.7871 114.587 71.9273 114.371C71.9387 114.337 71.9425 114.301 71.9384 114.265C71.9342 114.23 71.9223 114.195 71.9033 114.165C71.8843 114.134 71.8589 114.108 71.8287 114.088C71.7985 114.069 71.7643 114.056 71.7286 114.051H71.7475Z" fill="url(#paint14_linear)"/>
<path style="mix-blend-mode:color-dodge" opacity="0.9" d="M69.3166 110.007C68.8531 110.092 68.3707 110.205 67.8599 110.337C67.3491 110.469 66.9613 110.582 66.4694 110.742C65.9775 110.903 65.5235 111.082 65.0505 111.28L66.564 112.156C66.7246 112.088 66.8888 112.028 67.0558 111.977C67.245 111.921 67.4247 111.855 67.6139 111.779C68.4747 111.478 69.2882 111.223 70.0449 111.025C70.7487 110.831 71.4666 110.693 72.1921 110.61C72.8224 110.545 73.4587 110.564 74.0839 110.667C74.7019 110.771 75.2951 110.989 75.8339 111.308C76.3802 111.563 76.8237 111.995 77.0919 112.533C77.1807 112.74 77.2264 112.963 77.2264 113.188C77.2264 113.414 77.1807 113.636 77.0919 113.843C76.8764 114.347 76.5537 114.797 76.146 115.163C75.6555 115.633 75.1165 116.05 74.538 116.407L76.5811 117.585L74.888 118.528L72.8164 117.34C71.7274 117.877 70.6059 118.346 69.4585 118.745C68.3206 119.136 67.1577 119.451 65.9775 119.687L64.8992 117.067C65.4667 116.954 66.0532 116.822 66.668 116.671C67.2829 116.52 67.7464 116.379 68.3707 116.181C68.9805 115.989 69.5775 115.759 70.1584 115.493L68.6828 114.635C68.1531 114.843 67.6045 115.031 67.0464 115.21C66.2045 115.484 65.4383 115.71 64.7478 115.861C64.1277 116.013 63.494 116.104 62.856 116.134C62.3231 116.168 61.7882 116.127 61.2669 116.011C60.7807 115.907 60.3145 115.725 59.8859 115.474C59.3725 115.223 58.9448 114.826 58.6562 114.334C58.4473 113.937 58.3869 113.479 58.4859 113.042C58.6186 112.542 58.8682 112.08 59.2143 111.694C59.6501 111.198 60.1494 110.761 60.6993 110.394L59.0062 109.451L60.6993 108.509L62.4114 109.498C62.9222 109.253 63.4425 109.036 63.9722 108.838C64.5019 108.64 65.0221 108.452 65.5424 108.292C66.0626 108.132 66.564 107.981 67.0464 107.849L68.3896 107.5L69.3166 110.007ZM63.6411 112.703C63.8333 112.802 64.0506 112.841 64.2654 112.816C64.587 112.785 64.9042 112.718 65.2113 112.618L63.9344 111.883C63.3857 112.241 63.3006 112.514 63.6222 112.703H63.6411ZM71.7475 114.051C71.5391 113.95 71.3042 113.917 71.0759 113.957C70.7555 114 70.4392 114.069 70.13 114.164L71.3692 114.89C71.5954 114.766 71.7871 114.587 71.9273 114.371C71.9387 114.337 71.9425 114.301 71.9384 114.265C71.9342 114.23 71.9223 114.195 71.9033 114.165C71.8843 114.134 71.8589 114.108 71.8287 114.088C71.7985 114.069 71.7643 114.056 71.7286 114.051H71.7475Z" fill="url(#paint15_radial)"/>
<path style="mix-blend-mode:multiply" opacity="0.9" d="M67.4531 113.683C77.8543 113.683 86.2862 110.185 86.2862 105.869C86.2862 101.554 77.8543 98.0554 67.4531 98.0554C57.0519 98.0554 48.6201 101.554 48.6201 105.869C48.6201 110.185 57.0519 113.683 67.4531 113.683Z" fill="url(#paint16_radial)"/>
<path opacity="0.9" d="M93.0967 85.1423H42.623V92.2681C42.623 92.3341 42.623 92.4001 42.623 92.4661C42.623 100.553 53.9266 107.114 67.8599 107.114C81.7931 107.114 93.0967 100.516 93.0967 92.4661C93.0967 92.4001 93.0967 92.3341 93.0967 92.2681V85.1423Z" fill="url(#paint17_linear)"/>
<g style="mix-blend-mode:multiply" opacity="0.9">
<path style="mix-blend-mode:multiply" opacity="0.9" d="M67.8599 105.521C53.9266 105.521 42.623 98.9226 42.623 90.873V92.268C42.623 92.334 42.623 92.4 42.623 92.466C42.623 100.553 53.9266 107.113 67.8599 107.113C81.7931 107.113 93.0967 100.516 93.0967 92.466C93.0967 92.4 93.0967 92.334 93.0967 92.268V90.9013C93.0967 98.9603 81.8026 105.521 67.8599 105.521Z" fill="url(#paint18_linear)"/>
<path style="mix-blend-mode:multiply" opacity="0.9" d="M93.097 91.5045V91.3254C93.0875 91.3254 93.097 91.4291 93.097 91.5045Z" fill="url(#paint19_linear)"/>
</g>
<g style="mix-blend-mode:multiply" opacity="0.9">
<g style="mix-blend-mode:multiply" opacity="0.9">
<path d="M75.5879 106.407L76.2973 106.256V87.6306H75.5879V106.407Z" fill="#FDD65B"/>
</g>
<g style="mix-blend-mode:multiply" opacity="0.9">
<path d="M78.7666 105.634L79.4666 105.436V87.6306H78.7666V105.634Z" fill="#FDD65B"/>
</g>
<g style="mix-blend-mode:multiply" opacity="0.9">
<path d="M81.9258 104.597L82.6257 104.295V87.6306H81.9258V104.597Z" fill="#FDD65B"/>
</g>
<g style="mix-blend-mode:multiply" opacity="0.9">
<path d="M72.4668 106.831L73.1762 106.755V87.6306H72.4668V106.831Z" fill="#FDD65B"/>
</g>
<g style="mix-blend-mode:multiply" opacity="0.9">
<path d="M88.2725 101.024C88.5089 100.836 88.7549 100.638 88.9819 100.44V87.6306H88.2725V101.024Z" fill="#FDD65B"/>
</g>
<g style="mix-blend-mode:multiply" opacity="0.9">
<path d="M91.4414 97.6218C91.7013 97.2175 91.9381 96.799 92.1508 96.3682V87.6306H91.4414V97.6218Z" fill="#FDD65B"/>
</g>
<g style="mix-blend-mode:multiply" opacity="0.9">
<path d="M85.1035 103.117L85.8129 102.73V87.6494H85.1035V103.117Z" fill="#FDD65B"/>
</g>
<g style="mix-blend-mode:multiply" opacity="0.9">
<path d="M69.25 107.038H69.9594V87.6306H69.25V107.038Z" fill="#FDD65B"/>
</g>
<g style="mix-blend-mode:multiply" opacity="0.9">
<path d="M66.082 107.029H66.7915V87.6118H66.082V107.029Z" fill="#FDD65B"/>
</g>
<g style="mix-blend-mode:multiply" opacity="0.9">
<path d="M59.7441 106.293C59.9806 106.341 60.2076 106.397 60.4536 106.435V87.6306H59.7441V106.293Z" fill="#FDD65B"/>
</g>
<g style="mix-blend-mode:multiply" opacity="0.9">
<path d="M62.9131 106.793L63.6225 106.859V87.6306H62.9131V106.793Z" fill="#FDD65B"/>
</g>
<g style="mix-blend-mode:multiply" opacity="0.9">
<path d="M56.5752 105.521L57.2752 105.718V87.6306H56.5752V105.521Z" fill="#FDD65B"/>
</g>
<g style="mix-blend-mode:multiply" opacity="0.9">
<path d="M43.8906 96.9809C44.1079 97.3665 44.3447 97.7409 44.6001 98.1026V87.6306H43.8906V96.9809Z" fill="#FDD65B"/>
</g>
<g style="mix-blend-mode:multiply" opacity="0.9">
<path d="M47.0596 100.751C47.2866 100.94 47.5325 101.119 47.769 101.298V87.6306H47.0596V100.751Z" fill="#FDD65B"/>
</g>
<g style="mix-blend-mode:multiply" opacity="0.9">
<path d="M53.3975 104.427L54.1069 104.71V87.6306H53.3975V104.427Z" fill="#FDD65B"/>
</g>
<g style="mix-blend-mode:multiply" opacity="0.9">
<path d="M50.2285 102.91L50.9379 103.277V87.6306H50.2285V102.91Z" fill="#FDD65B"/>
</g>
</g>
<path opacity="0.9" d="M67.8599 99.8841C81.7978 99.8841 93.0967 93.3262 93.0967 85.2366C93.0967 77.147 81.7978 70.5891 67.8599 70.5891C53.922 70.5891 42.623 77.147 42.623 85.2366C42.623 93.3262 53.922 99.8841 67.8599 99.8841Z" fill="url(#paint20_linear)"/>
<path style="mix-blend-mode:screen" opacity="0.9" d="M67.8595 99.4977C54.2195 99.4977 43.1334 93.2107 42.6699 85.3591C42.6699 85.5288 42.6699 85.6985 42.6699 85.8681C42.6699 93.9554 53.9641 100.516 67.8973 100.516C81.8305 100.516 93.1341 93.9177 93.1341 85.8681C93.1341 85.6985 93.1341 85.5288 93.0868 85.3591C92.5855 93.2107 81.4995 99.4977 67.8595 99.4977Z" fill="url(#paint21_radial)"/>
<path opacity="0.9" d="M67.8595 96.1796C78.2763 96.1796 86.7209 91.2802 86.7209 85.2364C86.7209 79.1927 78.2763 74.2932 67.8595 74.2932C57.4426 74.2932 48.998 79.1927 48.998 85.2364C48.998 91.2802 57.4426 96.1796 67.8595 96.1796Z" fill="url(#paint22_linear)"/>
<path style="mix-blend-mode:screen" opacity="0.9" d="M68.4939 74.8495C78.5678 74.8495 86.7783 79.4303 87.308 85.2177C87.308 85.0198 87.3553 84.8218 87.3553 84.6239C87.3553 78.582 78.9083 73.6807 68.4939 73.6807C58.0794 73.6807 49.623 78.582 49.623 84.6239C49.623 84.8218 49.623 85.0198 49.6798 85.2177C50.2095 79.4303 58.4105 74.8495 68.4939 74.8495Z" fill="url(#paint23_radial)"/>
<path style="mix-blend-mode:multiply" opacity="0.9" d="M67.8595 75.4714C77.9428 75.4714 86.1439 80.0617 86.6736 85.8396C86.6736 85.6417 86.7209 85.4532 86.7209 85.2552C86.7209 79.2039 78.2834 74.312 67.8595 74.312C57.4356 74.312 48.998 79.2039 48.998 85.2552C48.998 85.4532 48.998 85.6417 49.0453 85.8396C49.575 80.0617 57.7855 75.4714 67.8595 75.4714Z" fill="url(#paint24_linear)"/>
<path style="mix-blend-mode:color-dodge" opacity="0.9" d="M56.1211 92.7581C61.7966 94.6432 65.5802 98.5077 64.6343 101.307C63.6884 104.107 58.3062 104.814 52.6402 102.891C46.9742 100.968 43.1811 97.141 44.127 94.3416C45.0729 91.5422 50.4551 90.8352 56.1211 92.7581Z" fill="url(#paint25_radial)"/>
<path style="mix-blend-mode:color-dodge" opacity="0.9" d="M81.1123 71.1452C86.7878 73.0303 90.5714 76.8949 89.6255 79.6943C88.6796 82.4937 83.2974 83.2006 77.6219 81.2778C71.9465 79.3549 68.1628 75.5187 69.1087 72.7287C70.0546 69.9387 75.4463 69.2129 81.1123 71.1452Z" fill="url(#paint26_radial)"/>
<g style="mix-blend-mode:multiply" opacity="0.9">
<path style="mix-blend-mode:multiply" opacity="0.9" d="M69.3166 81.8056C68.8531 81.8998 68.3707 82.0035 67.8599 82.1355C67.3491 82.2674 66.9613 82.3805 66.4694 82.5408C65.9775 82.701 65.5235 82.8895 65.0505 83.078L66.564 83.9546C66.7246 83.8862 66.8888 83.8265 67.0558 83.7755C67.245 83.719 67.4247 83.653 67.6139 83.5776C68.4747 83.276 69.2882 83.0309 70.0449 82.8235C70.7487 82.6297 71.4666 82.4911 72.1921 82.4088C72.8224 82.3435 73.4587 82.3625 74.0839 82.4654C74.7007 82.5742 75.2932 82.7912 75.8339 83.1063C76.3781 83.3643 76.8207 83.7954 77.0919 84.3316C77.1807 84.5387 77.2264 84.7616 77.2264 84.9867C77.2264 85.2119 77.1807 85.4347 77.0919 85.6418C76.8764 86.1448 76.5537 86.5951 76.146 86.9614C75.6534 87.4318 75.1147 87.8518 74.538 88.215L76.5811 89.3838L74.888 90.3264L72.8164 89.1387C71.7274 89.6758 70.6059 90.1448 69.4585 90.5432C68.3205 90.9343 67.1576 91.2491 65.9775 91.4857L64.8992 88.8654C65.4667 88.7617 66.0532 88.6298 66.668 88.4695C67.2829 88.3093 67.7464 88.1773 68.3707 87.9794C68.9805 87.7875 69.5775 87.5577 70.1584 87.2913L68.6828 86.4336C68.1531 86.6409 67.6045 86.8294 67.0464 87.0085C66.2925 87.2665 65.5252 87.4837 64.7478 87.6589C64.127 87.8094 63.4938 87.904 62.856 87.9417C62.3233 87.9656 61.7896 87.9244 61.2669 87.8191C60.7816 87.7071 60.316 87.5228 59.8859 87.2725C59.3725 87.0208 58.9448 86.6242 58.6562 86.132C58.4473 85.7353 58.3869 85.2776 58.4859 84.8406C58.6206 84.3412 58.8699 83.8797 59.2143 83.4928C59.6501 82.9963 60.1494 82.559 60.6993 82.192L59.0062 81.2494L60.6993 80.3069L62.4114 81.2966C62.9222 81.0609 63.4425 80.8347 63.9722 80.6368C64.5019 80.4388 65.0221 80.2503 65.5424 80.0901C66.0626 79.9299 66.564 79.779 67.0464 79.6471L68.3896 79.2983L69.3166 81.8056ZM63.6411 84.5013C63.8333 84.6 64.0506 84.6394 64.2654 84.6144C64.586 84.582 64.9028 84.5188 65.2113 84.4259L63.9344 83.6813C63.3857 84.0394 63.3006 84.3128 63.6222 84.5013H63.6411ZM71.7475 85.8492C71.5391 85.7485 71.3042 85.7155 71.0759 85.7549C70.7546 85.7977 70.4379 85.8703 70.13 85.9717L71.3692 86.6881C71.5992 86.5693 71.7922 86.39 71.9273 86.1697C71.9387 86.1356 71.9425 86.0994 71.9384 86.0637C71.9342 86.028 71.9223 85.9936 71.9033 85.963C71.8843 85.9325 71.8589 85.9064 71.8287 85.8867C71.7985 85.867 71.7643 85.8542 71.7286 85.8492H71.7475Z" fill="url(#paint27_linear)"/>
</g>
<path opacity="0.9" d="M69.3166 81.1835C68.8531 81.2683 68.3707 81.3814 67.8599 81.5133C67.3491 81.6453 66.9613 81.7584 66.4694 81.9187C65.9775 82.0789 65.5235 82.258 65.0505 82.4559L66.564 83.3231L67.0558 83.144L67.6139 82.9555C68.4747 82.6539 69.2882 82.3994 70.0449 82.192C70.7489 82.0011 71.4668 81.8656 72.1921 81.7867C72.8218 81.7137 73.4587 81.7296 74.0839 81.8338C74.7007 81.9427 75.2932 82.1597 75.8339 82.4748C76.3764 82.7351 76.8184 83.1655 77.0919 83.7001C77.1809 83.9088 77.2268 84.1332 77.2268 84.3599C77.2268 84.5866 77.1809 84.811 77.0919 85.0197C76.8764 85.5227 76.5537 85.973 76.146 86.3393C75.6507 86.8038 75.1123 87.2204 74.538 87.5835L76.5811 88.7523L74.888 89.6948L72.8354 88.4978C71.7483 89.0419 70.6266 89.5142 69.4774 89.9116C68.3382 90.2987 67.1755 90.6135 65.9964 90.8542L64.8992 88.2433C65.4667 88.1302 66.0532 87.9982 66.668 87.8474C67.2829 87.6966 67.7464 87.5552 68.3707 87.3573C68.9807 87.1623 69.5777 86.9294 70.1584 86.6598L68.6828 85.8115C68.1531 86.0094 67.6045 86.1979 67.0464 86.3864C66.2077 86.6629 65.4415 86.8797 64.7478 87.0368C64.1259 87.1798 63.4931 87.2713 62.856 87.3102C62.3231 87.344 61.7882 87.3027 61.2669 87.1876C60.782 87.0789 60.3164 86.8978 59.8859 86.6503C59.3718 86.3953 58.9442 85.9954 58.6562 85.5004C58.4473 85.1038 58.3869 84.646 58.4859 84.2091C58.6206 83.7021 58.8734 83.2338 59.2237 82.8424C59.6595 82.3459 60.1588 81.9086 60.7088 81.5416L59.0156 80.5991L60.7088 79.6565L62.4209 80.6462C62.9317 80.4011 63.4519 80.1843 63.9816 79.977C64.5113 79.7696 65.0316 79.5999 65.5518 79.4303C66.0721 79.2606 66.5734 79.1287 67.0558 78.9967L68.399 78.6479L69.3166 81.1835ZM63.6411 83.8792C63.8333 83.9779 64.0506 84.0173 64.2654 83.9923C64.587 83.9608 64.9042 83.8944 65.2113 83.7944L63.9344 83.0592C63.3857 83.4173 63.3006 83.6907 63.6222 83.8792H63.6411ZM71.7475 85.2176C71.5368 85.1248 71.3033 85.0953 71.0759 85.1328C70.7548 85.172 70.4381 85.2414 70.13 85.3402L71.3692 86.0565C71.5962 85.9377 71.7884 85.7624 71.9273 85.5475C71.9387 85.5129 71.9424 85.4762 71.9383 85.4399C71.9343 85.4036 71.9224 85.3687 71.9036 85.3374C71.8847 85.3061 71.8594 85.2792 71.8292 85.2586C71.799 85.2379 71.7647 85.2239 71.7286 85.2176H71.7475Z" fill="url(#paint28_linear)"/>
<path style="mix-blend-mode:color-dodge" opacity="0.9" d="M69.3166 81.1835C68.8531 81.2683 68.3707 81.3814 67.8599 81.5133C67.3491 81.6453 66.9613 81.7584 66.4694 81.9187C65.9775 82.0789 65.5235 82.258 65.0505 82.4559L66.564 83.3231L67.0558 83.144L67.6139 82.9555C68.4747 82.6539 69.2882 82.3994 70.0449 82.192C70.7489 82.0011 71.4668 81.8656 72.1921 81.7867C72.8218 81.7137 73.4587 81.7296 74.0839 81.8338C74.7007 81.9427 75.2932 82.1597 75.8339 82.4748C76.3764 82.7351 76.8184 83.1655 77.0919 83.7001C77.1809 83.9088 77.2268 84.1332 77.2268 84.3599C77.2268 84.5866 77.1809 84.811 77.0919 85.0197C76.8764 85.5227 76.5537 85.973 76.146 86.3393C75.6507 86.8038 75.1123 87.2204 74.538 87.5835L76.5811 88.7523L74.888 89.6948L72.8354 88.4978C71.7483 89.0419 70.6266 89.5142 69.4774 89.9116C68.3382 90.2987 67.1755 90.6135 65.9964 90.8542L64.8992 88.2433C65.4667 88.1302 66.0532 87.9982 66.668 87.8474C67.2829 87.6966 67.7464 87.5552 68.3707 87.3573C68.9807 87.1623 69.5777 86.9294 70.1584 86.6598L68.6828 85.8115C68.1531 86.0094 67.6045 86.1979 67.0464 86.3864C66.2077 86.6629 65.4415 86.8797 64.7478 87.0368C64.1259 87.1798 63.4931 87.2713 62.856 87.3102C62.3231 87.344 61.7882 87.3027 61.2669 87.1876C60.782 87.0789 60.3164 86.8978 59.8859 86.6503C59.3718 86.3953 58.9442 85.9954 58.6562 85.5004C58.4473 85.1038 58.3869 84.646 58.4859 84.2091C58.6206 83.7021 58.8734 83.2338 59.2237 82.8424C59.6595 82.3459 60.1588 81.9086 60.7088 81.5416L59.0156 80.5991L60.7088 79.6565L62.4209 80.6462C62.9317 80.4011 63.4519 80.1843 63.9816 79.977C64.5113 79.7696 65.0316 79.5999 65.5518 79.4303C66.0721 79.2606 66.5734 79.1287 67.0558 78.9967L68.399 78.6479L69.3166 81.1835ZM63.6411 83.8792C63.8333 83.9779 64.0506 84.0173 64.2654 83.9923C64.587 83.9608 64.9042 83.8944 65.2113 83.7944L63.9344 83.0592C63.3857 83.4173 63.3006 83.6907 63.6222 83.8792H63.6411ZM71.7475 85.2176C71.5368 85.1248 71.3033 85.0953 71.0759 85.1328C70.7548 85.172 70.4381 85.2414 70.13 85.3402L71.3692 86.0565C71.5962 85.9377 71.7884 85.7624 71.9273 85.5475C71.9387 85.5129 71.9424 85.4762 71.9383 85.4399C71.9343 85.4036 71.9224 85.3687 71.9036 85.3374C71.8847 85.3061 71.8594 85.2792 71.8292 85.2586C71.799 85.2379 71.7647 85.2239 71.7286 85.2176H71.7475Z" fill="url(#paint29_radial)"/>
<path opacity="0.85" d="M115.382 99.1771V149.765C128.517 142.224 135.057 133.084 135 122.345V71.7578C135.057 82.478 128.517 91.6177 115.382 99.1771Z" fill="url(#paint30_linear)"/>
<path opacity="0.85" d="M84.9141 81.6548L85.0465 81.7396V132.186L115.372 149.718V99.1771L84.9141 81.6548Z" fill="url(#paint31_linear)"/>
<path style="mix-blend-mode:color-dodge" opacity="0.9" d="M115.382 98.6681L86.0025 81.7585C85.6904 81.9564 85.3972 82.1638 85.0566 82.3523L115.382 99.8086C128.518 92.2681 135.057 83.1252 135.001 72.3799C135.001 72.2291 135.001 72.0783 135.001 71.9275C134.767 82.346 128.228 91.2596 115.382 98.6681Z" fill="url(#paint32_radial)"/>
<path opacity="0.9" d="M67.2922 32.8015C30.014 32.7355 -0.113189 50.0693 0.000319696 71.5127L42.727 71.5881C42.727 67.9498 45.1107 64.3115 49.9253 61.5403C59.5641 55.998 75.2473 56.0263 84.9239 61.6063C94.6006 67.1863 94.6762 76.1973 85.0469 81.7396L115.363 99.1771C128.499 91.6365 135.038 82.4968 134.981 71.7578C134.896 50.3049 104.57 32.8863 67.2922 32.8015Z" fill="url(#paint33_linear)"/>
<path style="mix-blend-mode:color-dodge" opacity="0.9" d="M92.1983 71.7767C92.4631 67.931 90.0605 64.0288 84.9432 61.088C75.2476 55.508 59.5644 55.4797 49.9446 61.022C45.1299 63.7931 42.7367 67.4314 42.7462 71.0792L0.0668151 70.9943C0.0668151 71.3714 0.0195312 71.7484 0.0195312 72.1254L42.7462 72.2103C42.7462 68.5625 45.1299 64.9242 49.9446 62.1531C59.5834 56.6108 75.2665 56.639 84.9432 62.219C89.5592 64.8771 91.9618 68.308 92.1983 71.7767Z" fill="url(#paint34_radial)"/>
<path style="mix-blend-mode:multiply" opacity="0.9" d="M67.4531 84.4635C77.8543 84.4635 86.2862 80.9651 86.2862 76.6496C86.2862 72.3341 77.8543 68.8357 67.4531 68.8357C57.0519 68.8357 48.6201 72.3341 48.6201 76.6496C48.6201 80.9651 57.0519 84.4635 67.4531 84.4635Z" fill="url(#paint35_radial)"/>
</g>
<g opacity="0.95">
<path opacity="0.95" d="M85.3121 114.437L85.0567 114.598C80.2137 117.425 73.8572 118.764 67.4912 118.735V136.361C73.8572 136.361 80.2137 135.004 85.0567 132.224L85.3121 132.054V114.437Z" fill="url(#paint36_linear)"/>
<path opacity="0.95" d="M67.7374 142.592L67.605 118.453H67.6617L67.5293 118.302L67.7374 161C86.3781 161.038 102.269 157.268 115.411 149.689V131.3C102.257 138.859 86.3655 142.623 67.7374 142.592Z" fill="url(#paint37_linear)"/>
<path opacity="0.95" d="M85.4359 114.07C85.3035 114.154 85.19 114.239 85.0575 114.315C80.2334 117.086 73.9147 118.462 67.5771 118.453L67.738 143.167C86.3818 143.167 102.273 138.821 115.412 131.262L85.4359 114.07Z" fill="url(#paint38_linear)"/>
<path style="mix-blend-mode:color-dodge" opacity="0.95" d="M67.7367 142.271L67.5381 118.509V118.66L67.7462 143.28C86.3869 143.28 102.278 139.509 115.42 131.969L114.559 131.479C101.569 138.699 85.9612 142.296 67.7367 142.271Z" fill="url(#paint39_radial)"/>
</g>
<g opacity="0.9">
<path opacity="0.9" d="M67.5753 104.097C61.2283 104.097 54.8907 102.693 50.0382 99.8934C45.1857 97.0939 42.6979 93.3614 42.7358 89.6665V122.053C42.7358 125.691 45.2046 129.339 50.0476 132.12C54.8907 134.9 61.2377 136.314 67.5848 136.324L67.5753 104.097Z" fill="url(#paint40_linear)"/>
<path opacity="0.9" d="M0 89.4968V122.053C0.122968 143.497 30.4298 160.934 67.7081 161V128.453C30.4298 128.387 0.122968 110.95 0 89.4968Z" fill="url(#paint41_linear)"/>
<path opacity="0.9" d="M50.0385 99.8933C45.082 97.0656 42.6604 93.2954 42.7456 89.5817L0 89.4968C0.122968 110.95 30.4298 128.387 67.7081 128.453L67.5756 104.097C61.2381 104.088 54.891 102.693 50.0385 99.8933Z" fill="url(#paint42_linear)"/>
<path style="mix-blend-mode:color-dodge" opacity="0.9" d="M67.5002 103.946H67.188L67.3867 127.972C34.0718 127.916 6.32829 113.966 0.728516 95.699C5.51481 114.55 33.7123 129.038 67.7083 129.094L67.5002 103.946Z" fill="url(#paint43_radial)"/>
</g>
<path d="M93.0967 54.9705H42.623V62.1057C42.623 62.1717 42.623 62.2377 42.623 62.3036C42.623 70.3909 53.9266 76.9511 67.8599 76.9511C81.7931 76.9511 93.0967 70.3532 93.0967 62.3036C93.0967 62.2377 93.0967 62.1717 93.0967 62.1057V54.9705Z" fill="url(#paint44_linear)"/>
<g style="mix-blend-mode:multiply">
<path style="mix-blend-mode:multiply" d="M67.8599 75.3489C53.9266 75.3489 42.623 68.7509 42.623 60.7014V62.1058C42.623 62.1718 42.623 62.2378 42.623 62.3038C42.623 70.391 53.9266 76.9513 67.8599 76.9513C81.7931 76.9513 93.0967 70.3533 93.0967 62.3038C93.0967 62.2378 93.0967 62.1718 93.0967 62.1058V60.7391C93.0967 68.7887 81.8026 75.3489 67.8599 75.3489Z" fill="url(#paint45_linear)"/>
<path style="mix-blend-mode:multiply" d="M93.097 61.333V61.1633C93.0875 61.1633 93.097 61.267 93.097 61.333Z" fill="url(#paint46_linear)"/>
</g>
<g style="mix-blend-mode:multiply">
<g style="mix-blend-mode:multiply">
<path d="M75.5879 76.2441L76.2973 76.0933V57.4587H75.5879V76.2441Z" fill="#FDD65B"/>
</g>
<g style="mix-blend-mode:multiply">
<path d="M78.7666 75.4618L79.4666 75.2638V57.4587H78.7666V75.4618Z" fill="#FDD65B"/>
</g>
<g style="mix-blend-mode:multiply">
<path d="M81.9258 74.425L82.6257 74.1233V57.4587H81.9258V74.425Z" fill="#FDD65B"/>
</g>
<g style="mix-blend-mode:multiply">
<path d="M72.4668 76.6588C72.7033 76.6588 72.9398 76.6588 73.1762 76.5834V57.4587H72.4668V76.6588Z" fill="#FDD65B"/>
</g>
<g style="mix-blend-mode:multiply">
<path d="M88.2725 70.8526C88.5089 70.6641 88.7549 70.4756 88.9819 70.2682V57.4587H88.2725V70.8526Z" fill="#FDD65B"/>
</g>
<g style="mix-blend-mode:multiply">
<path d="M91.4414 67.4499C91.7052 67.048 91.9422 66.6293 92.1508 66.1963V57.4587H91.4414V67.4499Z" fill="#FDD65B"/>
</g>
<g style="mix-blend-mode:multiply">
<path d="M85.1035 72.9453L85.8129 72.5589V57.4778H85.1035V72.9453Z" fill="#FDD65B"/>
</g>
<g style="mix-blend-mode:multiply">
<path d="M69.25 76.8756C69.4865 76.8756 69.723 76.8756 69.9594 76.8756V57.4587H69.25V76.8756Z" fill="#FDD65B"/>
</g>
<g style="mix-blend-mode:multiply">
<path d="M66.082 76.8568H66.7915V57.4587H66.082V76.8568Z" fill="#FDD65B"/>
</g>
<g style="mix-blend-mode:multiply">
<path d="M59.7441 76.1217L60.4536 76.2725V57.4211H59.7441V76.1217Z" fill="#FDD65B"/>
</g>
<g style="mix-blend-mode:multiply">
<path d="M62.9131 76.6306L63.6225 76.6871V57.4587H62.9131V76.6306Z" fill="#FDD65B"/>
</g>
<g style="mix-blend-mode:multiply">
<path d="M56.5752 75.3487L57.2752 75.5466V57.4587H56.5752V75.3487Z" fill="#FDD65B"/>
</g>
<g style="mix-blend-mode:multiply">
<path d="M43.8906 66.8189C44.1079 67.2045 44.3447 67.5789 44.6001 67.9406V57.4592H43.8906V66.8189Z" fill="#FDD65B"/>
</g>
<g style="mix-blend-mode:multiply">
<path d="M47.0596 70.5887C47.2866 70.7772 47.5325 70.9563 47.769 71.1354V57.4587H47.0596V70.5887Z" fill="#FDD65B"/>
</g>
<g style="mix-blend-mode:multiply">
<path d="M53.3975 74.2553L54.1069 74.5381V57.4587H53.3975V74.2553Z" fill="#FDD65B"/>
</g>
<g style="mix-blend-mode:multiply">
<path d="M50.2285 72.7378L50.9379 73.1054V57.4587H50.2285V72.7378Z" fill="#FDD65B"/>
</g>
</g>
<path d="M67.8599 69.7218C81.7978 69.7218 93.0967 63.1639 93.0967 55.0743C93.0967 46.9847 81.7978 40.4268 67.8599 40.4268C53.922 40.4268 42.623 46.9847 42.623 55.0743C42.623 63.1639 53.922 69.7218 67.8599 69.7218Z" fill="url(#paint47_linear)"/>
<path style="mix-blend-mode:screen" d="M67.8595 69.3258C54.2195 69.3258 43.1334 63.0388 42.6699 55.1873C42.6699 55.3663 42.6699 55.5266 42.6699 55.6962C42.6699 63.7835 53.9641 70.3437 67.8973 70.3437C81.8305 70.3437 93.1341 63.7458 93.1341 55.6962C93.1341 55.5266 93.1341 55.3663 93.0868 55.1873C92.5855 63.0483 81.4995 69.3258 67.8595 69.3258Z" fill="url(#paint48_radial)"/>
<path d="M67.8595 66.0175C78.2763 66.0175 86.7209 61.1181 86.7209 55.0743C86.7209 49.0305 78.2763 44.1311 67.8595 44.1311C57.4426 44.1311 48.998 49.0305 48.998 55.0743C48.998 61.1181 57.4426 66.0175 67.8595 66.0175Z" fill="url(#paint49_linear)"/>
<path style="mix-blend-mode:screen" d="M68.4939 44.6778C78.5678 44.6778 86.7783 49.2681 87.308 55.0461C87.308 54.8481 87.3553 54.6596 87.3553 54.4617C87.3553 48.4104 78.9083 43.509 68.4939 43.509C58.0794 43.509 49.623 48.4104 49.623 54.4617C49.623 54.6596 49.623 54.8481 49.6798 55.0461C50.2095 49.2681 58.4105 44.6778 68.4939 44.6778Z" fill="url(#paint50_radial)"/>
<path style="mix-blend-mode:multiply" d="M67.8595 45.2997C77.9428 45.2997 86.1439 49.89 86.6736 55.668C86.6736 55.4795 86.7209 55.2815 86.7209 55.0836C86.7209 49.0417 78.2834 44.1404 67.8595 44.1404C57.4356 44.1404 48.998 49.0417 48.998 55.0836C48.998 55.2815 48.998 55.4795 49.0453 55.668C49.575 49.8523 57.7855 45.2997 67.8595 45.2997Z" fill="url(#paint51_linear)"/>
<path style="mix-blend-mode:color-dodge" d="M56.1211 62.5865C61.7966 64.4716 65.5802 68.3361 64.6343 71.1355C63.6884 73.935 58.3062 74.6419 52.6402 72.7191C46.9742 70.7962 43.1811 66.9694 44.127 64.17C45.0729 61.3705 50.4551 60.6636 56.1211 62.5865Z" fill="url(#paint52_radial)"/>
<path style="mix-blend-mode:color-dodge" d="M81.1123 40.9734C86.7878 42.8586 90.5714 46.7231 89.6255 49.5225C88.6796 52.3219 83.2974 53.0289 77.6219 51.106C71.9465 49.1832 68.1628 45.3564 69.1087 42.5569C70.0546 39.7575 75.4463 39.0506 81.1123 40.9734Z" fill="url(#paint53_radial)"/>
<g style="mix-blend-mode:multiply">
<path style="mix-blend-mode:multiply" d="M69.3166 51.634C68.8531 51.7282 68.3707 51.8319 67.8599 51.9733C67.3491 52.1147 66.9613 52.2089 66.4694 52.3786C65.9775 52.5482 65.5235 52.7179 65.0505 52.9064L66.564 53.783L67.0558 53.6039L67.6139 53.4154C68.4747 53.1138 69.2882 52.8593 70.0449 52.6519C70.7487 52.4581 71.4666 52.3195 72.1921 52.2372C72.8224 52.1719 73.4587 52.1909 74.0839 52.2938C74.7007 52.4026 75.2932 52.6196 75.8339 52.9347C76.3781 53.1927 76.8207 53.6238 77.0919 54.16C77.1809 54.3687 77.2268 54.5931 77.2268 54.8198C77.2268 55.0466 77.1809 55.271 77.0919 55.4796C76.8749 55.9818 76.5523 56.4317 76.146 56.7992C75.6507 57.2637 75.1123 57.6803 74.538 58.0434L76.5811 59.2122L74.888 60.1548L72.8164 58.9577C71.7274 59.4947 70.6059 59.9638 69.4585 60.3621C68.3205 60.7532 67.1576 61.0681 65.9775 61.3047L64.8992 58.6938C65.4667 58.5901 66.0532 58.4582 66.668 58.2979C67.2829 58.1377 67.7464 58.0057 68.3707 57.8078C68.9819 57.6201 69.5793 57.3902 70.1584 57.1197L68.6828 56.2714C68.1531 56.4693 67.6045 56.6578 67.0464 56.8369C66.2925 57.0949 65.5252 57.3121 64.7478 57.4873C64.127 57.6378 63.4938 57.7324 62.856 57.7701C62.3232 57.7988 61.7889 57.7576 61.2669 57.6475C60.7816 57.5355 60.316 57.3512 59.8859 57.1009C59.3725 56.8492 58.9448 56.4526 58.6562 55.9603C58.4473 55.5637 58.3869 55.106 58.4859 54.669C58.6206 54.1696 58.8699 53.7081 59.2143 53.3211C59.6501 52.8247 60.1494 52.3874 60.6993 52.0204L59.0062 51.0778L60.6993 50.1353L62.4114 51.0778C62.9222 50.8422 63.4425 50.616 63.9722 50.418C64.5019 50.2201 65.0221 50.0316 65.5424 49.8714C66.0626 49.7111 66.564 49.5603 67.0464 49.4378L68.3896 49.0796L69.3166 51.634ZM63.6411 54.3297C63.8308 54.4357 64.0495 54.4787 64.2654 54.4522C64.5854 54.4111 64.9017 54.3449 65.2113 54.2543L63.9344 53.5191C63.3857 53.8773 63.3006 54.1412 63.6222 54.3297H63.6411ZM71.7475 55.6776C71.5377 55.5815 71.3042 55.5487 71.0759 55.5833C70.7553 55.6303 70.439 55.7028 70.13 55.8001L71.3692 56.5165C71.5962 56.3977 71.7884 56.2223 71.9273 56.0075C71.9387 55.9728 71.9424 55.9361 71.9383 55.8998C71.9343 55.8636 71.9224 55.8286 71.9036 55.7973C71.8847 55.766 71.8594 55.7391 71.8292 55.7185C71.799 55.6978 71.7647 55.6839 71.7286 55.6776H71.7475Z" fill="url(#paint54_linear)"/>
</g>
<path d="M69.3161 51.0117C68.8526 51.0965 68.3702 51.2096 67.8594 51.3416C67.3486 51.4735 66.9607 51.5866 66.4689 51.7469C65.977 51.9071 65.523 52.0862 65.05 52.2841L66.5635 53.1513L67.0553 52.9816L67.6134 52.7837C68.4742 52.4821 69.2877 52.2276 70.0444 52.0296C70.7471 51.8314 71.4654 51.6926 72.1916 51.6149C72.8217 51.5449 73.4586 51.564 74.0834 51.6715C74.7014 51.7759 75.2946 51.9932 75.8334 52.3124C76.3769 52.5668 76.8197 52.9947 77.0914 53.5283C77.1804 53.737 77.2263 53.9614 77.2263 54.1881C77.2263 54.4149 77.1804 54.6393 77.0914 54.8479C76.8759 55.351 76.5532 55.8012 76.1455 56.1675C75.6502 56.632 75.1118 57.0486 74.5375 57.4117L76.5806 58.5899L74.8875 59.5325L72.8348 58.3354C71.7458 58.8724 70.6243 59.3415 69.4769 59.7399C68.339 60.1312 67.1761 60.4461 65.9959 60.6824L64.8987 58.0715C65.4662 57.9584 66.0527 57.8264 66.6675 57.6756C67.2823 57.5248 67.7459 57.3834 68.3702 57.1855C68.9799 56.9936 69.577 56.7638 70.1579 56.4974L68.6823 55.6397C68.1526 55.8376 67.604 56.0356 67.0459 56.2146C66.2072 56.4911 65.441 56.7079 64.7473 56.865C64.1263 57.0127 63.4931 57.1042 62.8555 57.1384C62.3226 57.1722 61.7877 57.131 61.2664 57.0158C60.7802 56.9113 60.314 56.7299 59.8854 56.4786C59.3713 56.2235 58.9437 55.8237 58.6557 55.3286C58.449 54.9347 58.3887 54.4807 58.4854 54.0467C58.6211 53.5401 58.8738 53.0721 59.2232 52.68C59.659 52.1836 60.1583 51.7463 60.7083 51.3793L59.0151 50.4367L60.7083 49.4941L62.4204 50.4838C62.9312 50.2388 63.4514 50.022 63.9811 49.824C64.5108 49.6261 65.0311 49.4376 65.5513 49.2773C66.0716 49.1171 66.5729 48.9663 67.0553 48.8343L68.3985 48.4856L69.3161 51.0117ZM63.6406 53.7074C63.8328 53.8061 64.0501 53.8455 64.2649 53.8205C64.5865 53.789 64.9037 53.7226 65.2108 53.6226L63.9338 52.8874C63.3852 53.2456 63.3001 53.5189 63.6217 53.7074H63.6406ZM71.747 55.0553C71.5386 54.9546 71.3037 54.9216 71.0754 54.961C70.755 55.0044 70.4387 55.0738 70.1295 55.1684L71.3687 55.8847C71.5957 55.7659 71.7879 55.5906 71.9268 55.3758C71.9382 55.3417 71.942 55.3055 71.9379 55.2698C71.9337 55.2341 71.9218 55.1997 71.9028 55.1691C71.8838 55.1386 71.8584 55.1125 71.8282 55.0928C71.798 55.0732 71.7638 55.0603 71.7281 55.0553H71.747Z" fill="url(#paint55_linear)"/>
<path style="mix-blend-mode:color-dodge" d="M69.3161 51.0117C68.8526 51.0965 68.3702 51.2096 67.8594 51.3416C67.3486 51.4735 66.9607 51.5866 66.4689 51.7469C65.977 51.9071 65.523 52.0862 65.05 52.2841L66.5635 53.1513L67.0553 52.9816L67.6134 52.7837C68.4742 52.4821 69.2877 52.2276 70.0444 52.0296C70.7471 51.8314 71.4654 51.6926 72.1916 51.6149C72.8217 51.5449 73.4586 51.564 74.0834 51.6715C74.7014 51.7759 75.2946 51.9932 75.8334 52.3124C76.3769 52.5668 76.8197 52.9947 77.0914 53.5283C77.1804 53.737 77.2263 53.9614 77.2263 54.1881C77.2263 54.4149 77.1804 54.6393 77.0914 54.8479C76.8759 55.351 76.5532 55.8012 76.1455 56.1675C75.6502 56.632 75.1118 57.0486 74.5375 57.4117L76.5806 58.5899L74.8875 59.5325L72.8348 58.3354C71.7458 58.8724 70.6243 59.3415 69.4769 59.7399C68.339 60.1312 67.1761 60.4461 65.9959 60.6824L64.8987 58.0715C65.4662 57.9584 66.0527 57.8264 66.6675 57.6756C67.2823 57.5248 67.7459 57.3834 68.3702 57.1855C68.9799 56.9936 69.577 56.7638 70.1579 56.4974L68.6823 55.6397C68.1526 55.8376 67.604 56.0356 67.0459 56.2146C66.2072 56.4911 65.441 56.7079 64.7473 56.865C64.1263 57.0127 63.4931 57.1042 62.8555 57.1384C62.3226 57.1722 61.7877 57.131 61.2664 57.0158C60.7802 56.9113 60.314 56.7299 59.8854 56.4786C59.3713 56.2235 58.9437 55.8237 58.6557 55.3286C58.449 54.9347 58.3887 54.4807 58.4854 54.0467C58.6211 53.5401 58.8738 53.0721 59.2232 52.68C59.659 52.1836 60.1583 51.7463 60.7083 51.3793L59.0151 50.4367L60.7083 49.4941L62.4204 50.4838C62.9312 50.2388 63.4514 50.022 63.9811 49.824C64.5108 49.6261 65.0311 49.4376 65.5513 49.2773C66.0716 49.1171 66.5729 48.9663 67.0553 48.8343L68.3985 48.4856L69.3161 51.0117ZM63.6406 53.7074C63.8328 53.8061 64.0501 53.8455 64.2649 53.8205C64.5865 53.789 64.9037 53.7226 65.2108 53.6226L63.9338 52.8874C63.3852 53.2456 63.3001 53.5189 63.6217 53.7074H63.6406ZM71.747 55.0553C71.5386 54.9546 71.3037 54.9216 71.0754 54.961C70.755 55.0044 70.4387 55.0738 70.1295 55.1684L71.3687 55.8847C71.5957 55.7659 71.7879 55.5906 71.9268 55.3758C71.9382 55.3417 71.942 55.3055 71.9379 55.2698C71.9337 55.2341 71.9218 55.1997 71.9028 55.1691C71.8838 55.1386 71.8584 55.1125 71.8282 55.0928C71.798 55.0732 71.7638 55.0603 71.7281 55.0553H71.747Z" fill="url(#paint56_radial)"/>
<path d="M93.0967 14.5437H42.623V21.6412C42.623 21.7072 42.623 21.7732 42.623 21.8392C42.623 29.9264 53.9266 36.4867 67.8599 36.4867C81.7931 36.4867 93.0967 29.8887 93.0967 21.8392C93.0967 21.7732 93.0967 21.7072 93.0967 21.6412V14.5437Z" fill="url(#paint57_linear)"/>
<g style="mix-blend-mode:multiply">
<path style="mix-blend-mode:multiply" d="M67.8599 34.9222C53.9266 34.9222 42.623 28.3242 42.623 20.2747V21.6414C42.623 21.7074 42.623 21.7733 42.623 21.8393C42.623 29.9266 53.9266 36.4868 67.8599 36.4868C81.7931 36.4868 93.0967 29.8889 93.0967 21.8393C93.0967 21.7733 93.0967 21.7074 93.0967 21.6414V20.2747C93.0967 28.3619 81.8026 34.9222 67.8599 34.9222Z" fill="url(#paint58_linear)"/>
<path style="mix-blend-mode:multiply" d="M93.097 20.9061V20.6987C93.0875 20.7647 93.097 20.8307 93.097 20.9061Z" fill="url(#paint59_linear)"/>
</g>
<g style="mix-blend-mode:multiply">
<g style="mix-blend-mode:multiply">
<path d="M75.5879 35.7799L76.2973 35.6291V17.0322H75.5879V35.7799Z" fill="#FDD65B"/>
</g>
<g style="mix-blend-mode:multiply">
<path d="M78.7666 35.0353L79.4666 34.8373V17.0322H78.7666V35.0353Z" fill="#FDD65B"/>
</g>
<g style="mix-blend-mode:multiply">
<path d="M81.9258 33.9984L82.6257 33.6968V17.0322H81.9258V33.9984Z" fill="#FDD65B"/>
</g>
<g style="mix-blend-mode:multiply">
<path d="M72.4668 36.2323L73.1762 36.1569V17.0322H72.4668V36.2323Z" fill="#FDD65B"/>
</g>
<g style="mix-blend-mode:multiply">
<path d="M88.2725 30.4261C88.5089 30.2376 88.7549 30.0491 88.9819 29.8417V17.0322H88.2725V30.4261Z" fill="#FDD65B"/>
</g>
<g style="mix-blend-mode:multiply">
<path d="M91.4414 27.0235C91.7013 26.6191 91.9381 26.2006 92.1508 25.7698V17.0322H91.4414V27.0235Z" fill="#FDD65B"/>
</g>
<g style="mix-blend-mode:multiply">
<path d="M85.1035 32.5186L85.8129 32.1321V17.051H85.1035V32.5186Z" fill="#FDD65B"/>
</g>
<g style="mix-blend-mode:multiply">
<path d="M69.25 36.4491C69.4865 36.4491 69.723 36.4491 69.9594 36.4491V17.0322H69.25V36.4491Z" fill="#FDD65B"/>
</g>
<g style="mix-blend-mode:multiply">
<path d="M66.082 36.4303H66.7915V17.0134H66.082V36.4303Z" fill="#FDD65B"/>
</g>
<g style="mix-blend-mode:multiply">
<path d="M59.7441 35.7139C59.9806 35.7611 60.2076 35.8176 60.4536 35.8553V17.0322H59.7441V35.7139Z" fill="#FDD65B"/>
</g>
<g style="mix-blend-mode:multiply">
<path d="M62.9131 36.2041L63.6225 36.2606V17.0322H62.9131V36.2041Z" fill="#FDD65B"/>
</g>
<g style="mix-blend-mode:multiply">
<path d="M56.5752 34.9222L57.2752 35.1201V17.0322H56.5752V34.9222Z" fill="#FDD65B"/>
</g>
<g style="mix-blend-mode:multiply">
<path d="M43.8906 26.4014C44.1079 26.787 44.3447 27.1613 44.6001 27.523V17.0322H43.8906V26.4014Z" fill="#FDD65B"/>
</g>
<g style="mix-blend-mode:multiply">
<path d="M47.0596 30.1245C47.2866 30.313 47.5325 30.4921 47.769 30.6712V17.0322H47.0596V30.1245Z" fill="#FDD65B"/>
</g>
<g style="mix-blend-mode:multiply">
<path d="M53.3975 33.8288L54.1069 34.1116V17.0322H53.3975V33.8288Z" fill="#FDD65B"/>
</g>
<g style="mix-blend-mode:multiply">
<path d="M50.2285 32.3113L50.9379 32.6789V17.0322H50.2285V32.3113Z" fill="#FDD65B"/>
</g>
</g>
<path d="M67.8599 29.295C81.7978 29.295 93.0967 22.7371 93.0967 14.6475C93.0967 6.55791 81.7978 0 67.8599 0C53.922 0 42.623 6.55791 42.623 14.6475C42.623 22.7371 53.922 29.295 67.8599 29.295Z" fill="url(#paint60_linear)"/>
<path style="mix-blend-mode:screen" d="M67.8595 28.8993C54.2195 28.8993 43.1334 22.6123 42.6699 14.7607C42.6699 14.9304 42.6699 15.1001 42.6699 15.2697C42.6699 23.357 53.9641 29.9172 67.8973 29.9172C81.8305 29.9172 93.1341 23.3192 93.1341 15.2697C93.1341 15.1001 93.1341 14.9304 93.0868 14.7607C92.5855 22.6123 81.4995 28.8993 67.8595 28.8993Z" fill="url(#paint61_radial)"/>
<path d="M67.8595 25.5908C78.2763 25.5908 86.7209 20.6913 86.7209 14.6476C86.7209 8.60379 78.2763 3.70435 67.8595 3.70435C57.4426 3.70435 48.998 8.60379 48.998 14.6476C48.998 20.6913 57.4426 25.5908 67.8595 25.5908Z" fill="url(#paint62_linear)"/>
<path style="mix-blend-mode:screen" d="M68.4939 4.25105C78.5678 4.25105 86.7783 8.84136 87.308 14.6193C87.308 14.4214 87.3553 14.2329 87.3553 14.0255C87.3553 7.98363 78.9083 3.08228 68.4939 3.08228C58.0794 3.08228 49.623 7.98363 49.623 14.0255C49.623 14.2329 49.623 14.4214 49.6798 14.6193C50.2095 8.84136 58.4105 4.25105 68.4939 4.25105Z" fill="url(#paint63_radial)"/>
<path style="mix-blend-mode:multiply" d="M67.8595 4.87298C77.9428 4.87298 86.1439 9.46328 86.6736 15.2412C86.6736 15.0433 86.7209 14.8548 86.7209 14.6568C86.7209 8.61498 78.2834 3.71362 67.8595 3.71362C57.4356 3.71362 48.998 8.61498 48.998 14.6568C48.998 14.8548 48.998 15.0433 49.0453 15.2412C49.575 9.46328 57.7855 4.87298 67.8595 4.87298Z" fill="url(#paint64_linear)"/>
<path style="mix-blend-mode:color-dodge" d="M56.1211 22.1597C61.7966 24.0448 65.5802 27.9094 64.6343 30.7088C63.6884 33.5082 58.3062 34.2151 52.6402 32.2923C46.9742 30.3695 43.1811 26.5426 44.127 23.7432C45.0729 20.9438 50.4551 20.2369 56.1211 22.1597Z" fill="url(#paint65_radial)"/>
<g style="mix-blend-mode:multiply">
<path style="mix-blend-mode:multiply" d="M69.3166 11.2072C68.8531 11.3015 68.3707 11.4051 67.8599 11.5465C67.3491 11.6879 66.9613 11.7822 66.4694 11.9424C65.9775 12.1026 65.5235 12.2912 65.0505 12.4797L66.564 13.3563L67.0558 13.1772C67.245 13.1206 67.4247 13.0546 67.6139 12.9792C68.4747 12.687 69.2882 12.4325 70.0449 12.2252C70.7487 12.0314 71.4666 11.8927 72.1921 11.8104C72.8224 11.7451 73.4587 11.7641 74.0839 11.867C74.7007 11.9759 75.2932 12.1929 75.8339 12.5079C76.3781 12.7659 76.8207 13.197 77.0919 13.7333C77.1807 13.9404 77.2264 14.1632 77.2264 14.3884C77.2264 14.6135 77.1807 14.8364 77.0919 15.0435C76.8776 15.5499 76.5548 16.0035 76.146 16.3725C75.6507 16.8369 75.1123 17.2535 74.538 17.6167L76.5811 18.7854L74.888 19.728L72.8164 18.5404C71.7274 19.0774 70.6059 19.5464 69.4585 19.9448C68.3205 20.3359 67.1576 20.6508 65.9775 20.8874L64.8992 18.267C65.4667 18.1634 66.0532 18.0314 66.668 17.8712C67.2829 17.7109 67.7464 17.579 68.3707 17.381C68.9819 17.1933 69.5793 16.9634 70.1584 16.693L68.6828 15.8352C68.1531 16.0426 67.6045 16.2311 67.0464 16.4102C66.2925 16.6682 65.5252 16.8853 64.7478 17.0606C64.127 17.211 63.4938 17.3056 62.856 17.3433C62.3232 17.372 61.7889 17.3308 61.2669 17.2208C60.7816 17.1087 60.316 16.9244 59.8859 16.6741C59.3725 16.4225 58.9448 16.0258 58.6562 15.5336C58.4473 15.137 58.3869 14.6792 58.4859 14.2423C58.6206 13.7428 58.8699 13.2814 59.2143 12.8944C59.6501 12.398 60.1494 11.9606 60.6993 11.5937L59.0062 10.6511L60.6993 9.70852L62.4114 10.6511C62.9222 10.4154 63.4425 10.1892 63.9722 9.99129C64.5019 9.79335 65.0221 9.60484 65.5424 9.4446C66.0626 9.28436 66.564 9.13355 67.0464 9.00159L68.3896 8.65283L69.3166 11.2072ZM63.6411 13.9029C63.8319 14.0057 64.0505 14.0453 64.2654 14.016C64.586 13.9836 64.9028 13.9205 65.2113 13.8275L63.9344 13.0923C63.3857 13.4411 63.3006 13.7144 63.6222 13.9029H63.6411ZM71.7475 15.2508C71.5391 15.1501 71.3042 15.1172 71.0759 15.1566C70.7553 15.2036 70.439 15.276 70.13 15.3733L71.3692 16.0897C71.5962 15.9709 71.7884 15.7955 71.9273 15.5807C71.9387 15.546 71.9424 15.5093 71.9383 15.4731C71.9343 15.4368 71.9224 15.4018 71.9036 15.3706C71.8847 15.3393 71.8594 15.3124 71.8292 15.2917C71.799 15.2711 71.7647 15.2571 71.7286 15.2508H71.7475Z" fill="url(#paint66_linear)"/>
</g>
<path d="M69.3161 10.585C68.8526 10.6698 68.3702 10.783 67.8594 10.9149C67.3486 11.0469 66.9607 11.16 66.4689 11.3202C65.977 11.4805 65.523 11.6595 65.05 11.8575L66.5635 12.7246L67.0553 12.5456L67.6134 12.357C68.4742 12.0554 69.2877 11.8009 70.0444 11.603C70.7471 11.4047 71.4654 11.266 72.1916 11.1883C72.8215 11.1199 73.4577 11.1358 74.0834 11.2354C74.699 11.3485 75.2908 11.5653 75.8334 11.8763C76.3759 12.1367 76.8179 12.5671 77.0914 13.1017C77.1804 13.3103 77.2263 13.5348 77.2263 13.7615C77.2263 13.9882 77.1804 14.2126 77.0914 14.4213C76.8759 14.9243 76.5532 15.3746 76.1455 15.7409C75.6502 16.2053 75.1118 16.6219 74.5375 16.9851L76.5806 18.1633L74.8875 19.1058L72.8159 17.9182C71.7269 18.4552 70.6054 18.9243 69.4579 19.3226C68.3201 19.714 67.1572 20.0289 65.977 20.2652L64.8987 17.6449C65.4662 17.5317 66.0527 17.3998 66.6675 17.249C67.2823 17.0982 67.7459 16.9568 68.3702 16.7588C68.9802 16.5639 69.5772 16.3309 70.1579 16.0613L68.6823 15.213C68.1526 15.411 67.604 15.5995 67.0459 15.788C66.2072 16.0645 65.441 16.2813 64.7473 16.4384C64.1263 16.5861 63.4931 16.6775 62.8555 16.7117C62.3226 16.7456 61.7877 16.7043 61.2664 16.5892C60.7802 16.4846 60.314 16.3032 59.8854 16.0519C59.3713 15.7969 58.9437 15.397 58.6557 14.902C58.449 14.508 58.3887 14.054 58.4854 13.6201C58.6197 13.1177 58.869 12.6531 59.2137 12.2628C59.6496 11.7663 60.1488 11.329 60.6988 10.962L59.0056 10.0195L60.6988 9.07691L62.4109 10.0666C62.9217 9.82153 63.442 9.60475 63.9717 9.39738C64.5014 9.19002 65.0216 9.02035 65.5419 8.86011C66.0621 8.69988 66.5635 8.54906 67.0459 8.4171L68.3891 8.06836L69.3161 10.585ZM63.6406 13.2808C63.8328 13.3794 64.0501 13.4188 64.2649 13.3939C64.5865 13.3623 64.9037 13.296 65.2108 13.1959L63.9338 12.4607C63.3852 12.8189 63.3001 13.0922 63.6217 13.2808H63.6406ZM71.747 14.6286C71.5386 14.528 71.3037 14.495 71.0754 14.5344C70.7543 14.5735 70.4376 14.643 70.1295 14.7417L71.3687 15.4581C71.5957 15.3393 71.7879 15.1639 71.9268 14.9491C71.9382 14.915 71.942 14.8788 71.9379 14.8431C71.9337 14.8074 71.9218 14.7731 71.9028 14.7425C71.8838 14.7119 71.8584 14.6859 71.8282 14.6662C71.798 14.6465 71.7638 14.6337 71.7281 14.6286H71.747Z" fill="url(#paint67_linear)"/>
<path style="mix-blend-mode:color-dodge" d="M69.3161 10.585C68.8526 10.6698 68.3702 10.783 67.8594 10.9149C67.3486 11.0469 66.9607 11.16 66.4689 11.3202C65.977 11.4805 65.523 11.6595 65.05 11.8575L66.5635 12.7246L67.0553 12.5456L67.6134 12.357C68.4742 12.0554 69.2877 11.8009 70.0444 11.603C70.7471 11.4047 71.4654 11.266 72.1916 11.1883C72.8215 11.1199 73.4577 11.1358 74.0834 11.2354C74.699 11.3485 75.2908 11.5653 75.8334 11.8763C76.3759 12.1367 76.8179 12.5671 77.0914 13.1017C77.1804 13.3103 77.2263 13.5348 77.2263 13.7615C77.2263 13.9882 77.1804 14.2126 77.0914 14.4213C76.8759 14.9243 76.5532 15.3746 76.1455 15.7409C75.6502 16.2053 75.1118 16.6219 74.5375 16.9851L76.5806 18.1633L74.8875 19.1058L72.8159 17.9182C71.7269 18.4552 70.6054 18.9243 69.4579 19.3226C68.3201 19.714 67.1572 20.0289 65.977 20.2652L64.8987 17.6449C65.4662 17.5317 66.0527 17.3998 66.6675 17.249C67.2823 17.0982 67.7459 16.9568 68.3702 16.7588C68.9802 16.5639 69.5772 16.3309 70.1579 16.0613L68.6823 15.213C68.1526 15.411 67.604 15.5995 67.0459 15.788C66.2072 16.0645 65.441 16.2813 64.7473 16.4384C64.1263 16.5861 63.4931 16.6775 62.8555 16.7117C62.3226 16.7456 61.7877 16.7043 61.2664 16.5892C60.7802 16.4846 60.314 16.3032 59.8854 16.0519C59.3713 15.7969 58.9437 15.397 58.6557 14.902C58.449 14.508 58.3887 14.054 58.4854 13.6201C58.6197 13.1177 58.869 12.6531 59.2137 12.2628C59.6496 11.7663 60.1488 11.329 60.6988 10.962L59.0056 10.0195L60.6988 9.07691L62.4109 10.0666C62.9217 9.82153 63.442 9.60475 63.9717 9.39738C64.5014 9.19002 65.0216 9.02035 65.5419 8.86011C66.0621 8.69988 66.5635 8.54906 67.0459 8.4171L68.3891 8.06836L69.3161 10.585ZM63.6406 13.2808C63.8328 13.3794 64.0501 13.4188 64.2649 13.3939C64.5865 13.3623 64.9037 13.296 65.2108 13.1959L63.9338 12.4607C63.3852 12.8189 63.3001 13.0922 63.6217 13.2808H63.6406ZM71.747 14.6286C71.5386 14.528 71.3037 14.495 71.0754 14.5344C70.7543 14.5735 70.4376 14.643 70.1295 14.7417L71.3687 15.4581C71.5957 15.3393 71.7879 15.1639 71.9268 14.9491C71.9382 14.915 71.942 14.8788 71.9379 14.8431C71.9337 14.8074 71.9218 14.7731 71.9028 14.7425C71.8838 14.7119 71.8584 14.6859 71.8282 14.6662C71.798 14.6465 71.7638 14.6337 71.7281 14.6286H71.747Z" fill="url(#paint68_radial)"/>
<path style="mix-blend-mode:multiply" opacity="0.3" d="M67.4531 58.6561C77.8543 58.6561 86.2862 55.1577 86.2862 50.8422C86.2862 46.5267 77.8543 43.0283 67.4531 43.0283C57.0519 43.0283 48.6201 46.5267 48.6201 50.8422C48.6201 55.1577 57.0519 58.6561 67.4531 58.6561Z" fill="url(#paint69_radial)"/>
</g>
<defs>
<linearGradient id="paint0_linear" x1="122.798" y1="53.8585" x2="69.508" y2="120.22" gradientUnits="userSpaceOnUse">
<stop offset="0.1" stop-color="#45108A"/>
<stop offset="1" stop-color="#7C1DC9"/>
</linearGradient>
<linearGradient id="paint1_linear" x1="-100.363" y1="2758.74" x2="2427.83" y2="7004.84" gradientUnits="userSpaceOnUse">
<stop offset="0.1" stop-color="#45108A"/>
<stop offset="1" stop-color="#7C1DC9"/>
</linearGradient>
<linearGradient id="paint2_linear" x1="42.7082" y1="89.7419" x2="92.2359" y2="89.7419" gradientUnits="userSpaceOnUse">
<stop offset="0.1" stop-color="#45108A"/>
<stop offset="0.62" stop-color="#7C1DC9"/>
<stop offset="0.9" stop-color="#5D16A5"/>
<stop offset="1" stop-color="#501397"/>
</linearGradient>
<linearGradient id="paint3_linear" x1="42.869" y1="124.937" x2="92.5386" y2="124.937" gradientUnits="userSpaceOnUse">
<stop stop-color="#FFBB96"/>
<stop offset="0.23" stop-color="#FFFBC9"/>
<stop offset="0.54" stop-color="#F9B673"/>
<stop offset="0.64" stop-color="#F9B876"/>
<stop offset="0.72" stop-color="#FABE81"/>
<stop offset="0.81" stop-color="#FCC993"/>
<stop offset="0.86" stop-color="#FED2A3"/>
<stop offset="0.97" stop-color="#FFC28C"/>
</linearGradient>
<linearGradient id="paint4_linear" x1="21580.2" y1="4621.81" x2="24230.6" y2="4621.81" gradientUnits="userSpaceOnUse">
<stop stop-color="#FFBB96"/>
<stop offset="0.23" stop-color="#FFFBC9"/>
<stop offset="0.54" stop-color="#F9B673"/>
<stop offset="0.64" stop-color="#F9B876"/>
<stop offset="0.72" stop-color="#FABE81"/>
<stop offset="0.81" stop-color="#FCC993"/>
<stop offset="0.86" stop-color="#FED2A3"/>
<stop offset="0.97" stop-color="#FFC28C"/>
</linearGradient>
<linearGradient id="paint5_linear" x1="95.1061" y1="176.041" x2="95.1061" y2="176.041" gradientUnits="userSpaceOnUse">
<stop stop-color="#FFBB96"/>
<stop offset="0.23" stop-color="#FFFBC9"/>
<stop offset="0.54" stop-color="#F9B673"/>
<stop offset="0.64" stop-color="#F9B876"/>
<stop offset="0.72" stop-color="#FABE81"/>
<stop offset="0.81" stop-color="#FCC993"/>
<stop offset="0.86" stop-color="#FED2A3"/>
<stop offset="0.97" stop-color="#FFC28C"/>
</linearGradient>
<linearGradient id="paint6_linear" x1="114.484" y1="67.3088" x2="65.3019" y2="116.986" gradientUnits="userSpaceOnUse">
<stop offset="0.04" stop-color="#FFBA78"/>
<stop offset="0.4" stop-color="#FFC987"/>
<stop offset="1" stop-color="#FEECA8"/>
</linearGradient>
<radialGradient id="paint7_radial" cx="0" cy="0" r="1" gradientUnits="userSpaceOnUse" gradientTransform="translate(57.0193 124.843) scale(31.7163 31.6043)">
<stop stop-color="white"/>
<stop offset="1"/>
</radialGradient>
<linearGradient id="paint8_linear" x1="3564.01" y1="2279.51" x2="2825.14" y2="3561.17" gradientUnits="userSpaceOnUse">
<stop offset="0.04" stop-color="#FFBA78"/>
<stop offset="0.4" stop-color="#FFC987"/>
<stop offset="1" stop-color="#FEECA8"/>
</linearGradient>
<radialGradient id="paint9_radial" cx="0" cy="0" r="1" gradientUnits="userSpaceOnUse" gradientTransform="translate(17501.5 2991.49) scale(556.551 170.171)">
<stop stop-color="white"/>
<stop offset="1"/>
</radialGradient>
<linearGradient id="paint10_linear" x1="18222" y1="2789.77" x2="17986" y2="3566.79" gradientUnits="userSpaceOnUse">
<stop stop-color="#FFBB96"/>
<stop offset="0.23" stop-color="#FFFBC9"/>
<stop offset="0.54" stop-color="#F9B673"/>
<stop offset="0.64" stop-color="#F9B876"/>
<stop offset="0.72" stop-color="#FABE81"/>
<stop offset="0.81" stop-color="#FCC993"/>
<stop offset="0.86" stop-color="#FED2A3"/>
<stop offset="0.97" stop-color="#FFC28C"/>
</linearGradient>
<radialGradient id="paint11_radial" cx="0" cy="0" r="1" gradientUnits="userSpaceOnUse" gradientTransform="translate(49.7876 134.984) rotate(-70.2819) scale(5.30718 10.9805)">
<stop stop-color="#F49587"/>
<stop offset="0.12" stop-color="#BD7368"/>
<stop offset="0.24" stop-color="#8B554D"/>
<stop offset="0.36" stop-color="#603B35"/>
<stop offset="0.48" stop-color="#3E2622"/>
<stop offset="0.61" stop-color="#231513"/>
<stop offset="0.74" stop-color="#0F0908"/>
<stop offset="0.86" stop-color="#040202"/>
<stop offset="1"/>
</radialGradient>
<radialGradient id="paint12_radial" cx="0" cy="0" r="1" gradientUnits="userSpaceOnUse" gradientTransform="translate(323606 -111155) scale(787.733 465.573)">
<stop stop-color="#F49587"/>
<stop offset="0.12" stop-color="#BD7368"/>
<stop offset="0.24" stop-color="#8B554D"/>
<stop offset="0.36" stop-color="#603B35"/>
<stop offset="0.48" stop-color="#3E2622"/>
<stop offset="0.61" stop-color="#231513"/>
<stop offset="0.74" stop-color="#0F0908"/>
<stop offset="0.86" stop-color="#040202"/>
<stop offset="1"/>
</radialGradient>
<linearGradient id="paint13_linear" x1="8384.42" y1="3314.35" x2="8757.91" y2="3314.35" gradientUnits="userSpaceOnUse">
<stop stop-color="#FFBB96"/>
<stop offset="0.23" stop-color="#FFFBC9"/>
<stop offset="0.54" stop-color="#F9B673"/>
<stop offset="0.64" stop-color="#F9B876"/>
<stop offset="0.72" stop-color="#FABE81"/>
<stop offset="0.81" stop-color="#FCC993"/>
<stop offset="0.86" stop-color="#FED2A3"/>
<stop offset="0.97" stop-color="#FFC28C"/>
</linearGradient>
<linearGradient id="paint14_linear" x1="8937.15" y1="3177.01" x2="8695.24" y2="3380.74" gradientUnits="userSpaceOnUse">
<stop offset="0.04" stop-color="#FFBA78"/>
<stop offset="0.4" stop-color="#FFC987"/>
<stop offset="1" stop-color="#FEECA8"/>
</linearGradient>
<radialGradient id="paint15_radial" cx="0" cy="0" r="1" gradientUnits="userSpaceOnUse" gradientTransform="translate(8315.49 3323.99) scale(334.22 216.814)">
<stop stop-color="#F49587"/>
<stop offset="0.12" stop-color="#BD7368"/>
<stop offset="0.24" stop-color="#8B554D"/>
<stop offset="0.36" stop-color="#603B35"/>
<stop offset="0.48" stop-color="#3E2622"/>
<stop offset="0.61" stop-color="#231513"/>
<stop offset="0.74" stop-color="#0F0908"/>
<stop offset="0.86" stop-color="#040202"/>
<stop offset="1"/>
</radialGradient>
<radialGradient id="paint16_radial" cx="0" cy="0" r="1" gradientUnits="userSpaceOnUse" gradientTransform="translate(75.4256 111.459) rotate(180) scale(18.8187 7.78694)">
<stop offset="0.19" stop-color="#785C5D"/>
<stop offset="1" stop-color="white"/>
</radialGradient>
<linearGradient id="paint17_linear" x1="21580.2" y1="5447.89" x2="24230.6" y2="5447.89" gradientUnits="userSpaceOnUse">
<stop stop-color="#FFBB96"/>
<stop offset="0.23" stop-color="#FFFBC9"/>
<stop offset="0.54" stop-color="#F9B673"/>
<stop offset="0.64" stop-color="#F9B876"/>
<stop offset="0.72" stop-color="#FABE81"/>
<stop offset="0.81" stop-color="#FCC993"/>
<stop offset="0.86" stop-color="#FED2A3"/>
<stop offset="0.97" stop-color="#FFC28C"/>
</linearGradient>
<linearGradient id="paint18_linear" x1="21580.2" y1="4104.21" x2="24230.6" y2="4104.21" gradientUnits="userSpaceOnUse">
<stop stop-color="#FFBB96"/>
<stop offset="0.23" stop-color="#FFFBC9"/>
<stop offset="0.54" stop-color="#F9B673"/>
<stop offset="0.64" stop-color="#F9B876"/>
<stop offset="0.72" stop-color="#FABE81"/>
<stop offset="0.81" stop-color="#FCC993"/>
<stop offset="0.86" stop-color="#FED2A3"/>
<stop offset="0.97" stop-color="#FFC28C"/>
</linearGradient>
<linearGradient id="paint19_linear" x1="95.1061" y1="134.145" x2="95.1061" y2="134.145" gradientUnits="userSpaceOnUse">
<stop stop-color="#FFBB96"/>
<stop offset="0.23" stop-color="#FFFBC9"/>
<stop offset="0.54" stop-color="#F9B673"/>
<stop offset="0.64" stop-color="#F9B876"/>
<stop offset="0.72" stop-color="#FABE81"/>
<stop offset="0.81" stop-color="#FCC993"/>
<stop offset="0.86" stop-color="#FED2A3"/>
<stop offset="0.97" stop-color="#FFC28C"/>
</linearGradient>
<linearGradient id="paint20_linear" x1="6151.45" y1="1266.7" x2="4828.29" y2="3560.85" gradientUnits="userSpaceOnUse">
<stop offset="0.04" stop-color="#FFBA78"/>
<stop offset="0.4" stop-color="#FFC987"/>
<stop offset="1" stop-color="#FEECA8"/>
</linearGradient>
<radialGradient id="paint21_radial" cx="0" cy="0" r="1" gradientUnits="userSpaceOnUse" gradientTransform="translate(22331.2 3783.09) scale(1692.06 508.197)">
<stop stop-color="white"/>
<stop offset="1"/>
</radialGradient>
<linearGradient id="paint22_linear" x1="3564.01" y1="1581.39" x2="2825.14" y2="2863.05" gradientUnits="userSpaceOnUse">
<stop offset="0.04" stop-color="#FFBA78"/>
<stop offset="0.4" stop-color="#FFC987"/>
<stop offset="1" stop-color="#FEECA8"/>
</linearGradient>
<radialGradient id="paint23_radial" cx="0" cy="0" r="1" gradientUnits="userSpaceOnUse" gradientTransform="translate(17501.5 2609.75) scale(556.551 170.171)">
<stop stop-color="white"/>
<stop offset="1"/>
</radialGradient>
<linearGradient id="paint24_linear" x1="18222" y1="2408.31" x2="17986.1" y2="3185.36" gradientUnits="userSpaceOnUse">
<stop stop-color="#FFBB96"/>
<stop offset="0.23" stop-color="#FFFBC9"/>
<stop offset="0.54" stop-color="#F9B673"/>
<stop offset="0.64" stop-color="#F9B876"/>
<stop offset="0.72" stop-color="#FABE81"/>
<stop offset="0.81" stop-color="#FCC993"/>
<stop offset="0.86" stop-color="#FED2A3"/>
<stop offset="0.97" stop-color="#FFC28C"/>
</linearGradient>
<radialGradient id="paint25_radial" cx="0" cy="0" r="1" gradientUnits="userSpaceOnUse" gradientTransform="translate(323253 -112278) scale(787.364 465.572)">
<stop stop-color="#F49587"/>
<stop offset="0.12" stop-color="#BD7368"/>
<stop offset="0.24" stop-color="#8B554D"/>
<stop offset="0.36" stop-color="#603B35"/>
<stop offset="0.48" stop-color="#3E2622"/>
<stop offset="0.61" stop-color="#231513"/>
<stop offset="0.74" stop-color="#0F0908"/>
<stop offset="0.86" stop-color="#040202"/>
<stop offset="1"/>
</radialGradient>
<radialGradient id="paint26_radial" cx="0" cy="0" r="1" gradientUnits="userSpaceOnUse" gradientTransform="translate(327622 -111598) scale(787.733 465.633)">
<stop stop-color="#F49587"/>
<stop offset="0.12" stop-color="#BD7368"/>
<stop offset="0.24" stop-color="#8B554D"/>
<stop offset="0.36" stop-color="#603B35"/>
<stop offset="0.48" stop-color="#3E2622"/>
<stop offset="0.61" stop-color="#231513"/>
<stop offset="0.74" stop-color="#0F0908"/>
<stop offset="0.86" stop-color="#040202"/>
<stop offset="1"/>
</radialGradient>
<linearGradient id="paint27_linear" x1="8384.25" y1="2915.3" x2="8757.73" y2="2915.3" gradientUnits="userSpaceOnUse">
<stop stop-color="#FFBB96"/>
<stop offset="0.23" stop-color="#FFFBC9"/>
<stop offset="0.54" stop-color="#F9B673"/>
<stop offset="0.64" stop-color="#F9B876"/>
<stop offset="0.72" stop-color="#FABE81"/>
<stop offset="0.81" stop-color="#FCC993"/>
<stop offset="0.86" stop-color="#FED2A3"/>
<stop offset="0.97" stop-color="#FFC28C"/>
</linearGradient>
<linearGradient id="paint28_linear" x1="8937.33" y1="2779.65" x2="8695.01" y2="2983.19" gradientUnits="userSpaceOnUse">
<stop offset="0.04" stop-color="#FFBA78"/>
<stop offset="0.4" stop-color="#FFC987"/>
<stop offset="1" stop-color="#FEECA8"/>
</linearGradient>
<radialGradient id="paint29_radial" cx="0" cy="0" r="1" gradientUnits="userSpaceOnUse" gradientTransform="translate(8315.65 2926.86) scale(334.226 217.149)">
<stop stop-color="#F49587"/>
<stop offset="0.12" stop-color="#BD7368"/>
<stop offset="0.24" stop-color="#8B554D"/>
<stop offset="0.36" stop-color="#603B35"/>
<stop offset="0.48" stop-color="#3E2622"/>
<stop offset="0.61" stop-color="#231513"/>
<stop offset="0.74" stop-color="#0F0908"/>
<stop offset="0.86" stop-color="#040202"/>
<stop offset="1"/>
</radialGradient>
<linearGradient id="paint30_linear" x1="7767.18" y1="20321.6" x2="10374.7" y2="20321.6" gradientUnits="userSpaceOnUse">
<stop offset="0.1" stop-color="#45108A"/>
<stop offset="1" stop-color="#7C1DC9"/>
</linearGradient>
<linearGradient id="paint31_linear" x1="2691.23" y1="7174.48" x2="5334.05" y2="8249.3" gradientUnits="userSpaceOnUse">
<stop offset="0.1" stop-color="#45108A"/>
<stop offset="1" stop-color="#7C1DC9"/>
</linearGradient>
<radialGradient id="paint32_radial" cx="0" cy="0" r="1" gradientUnits="userSpaceOnUse" gradientTransform="translate(24942.8 6573.81) scale(1068.31 596.378)">
<stop stop-color="white"/>
<stop offset="1"/>
</radialGradient>
<linearGradient id="paint33_linear" x1="69004" y1="9704.42" x2="66371.2" y2="16347.4" gradientUnits="userSpaceOnUse">
<stop offset="0.1" stop-color="#45108A"/>
<stop offset="1" stop-color="#7C1DC9"/>
</linearGradient>
<radialGradient id="paint34_radial" cx="0" cy="0" r="1" gradientUnits="userSpaceOnUse" gradientTransform="translate(42285 3093.62) scale(3221.41 535.498)">
<stop stop-color="white"/>
<stop offset="1"/>
</radialGradient>
<radialGradient id="paint35_radial" cx="0" cy="0" r="1" gradientUnits="userSpaceOnUse" gradientTransform="translate(317540 -67116.4) scale(635.05 263.484)">
<stop offset="0.19" stop-color="#785C5D"/>
<stop offset="1" stop-color="white"/>
</radialGradient>
<linearGradient id="paint36_linear" x1="67.4912" y1="125.399" x2="85.3121" y2="125.399" gradientUnits="userSpaceOnUse">
<stop offset="0.04" stop-color="#9F19AB"/>
<stop offset="0.16" stop-color="#AE25B1"/>
<stop offset="0.41" stop-color="#D744BF"/>
<stop offset="0.63" stop-color="#FF63CE"/>
<stop offset="0.87" stop-color="#DC48C1"/>
</linearGradient>
<linearGradient id="paint37_linear" x1="18340.7" y1="12512.4" x2="25049.4" y2="12512.4" gradientUnits="userSpaceOnUse">
<stop offset="0.04" stop-color="#9F19AB"/>
<stop offset="0.16" stop-color="#AE25B1"/>
<stop offset="0.41" stop-color="#D744BF"/>
<stop offset="0.63" stop-color="#FF63CE"/>
<stop offset="0.87" stop-color="#DC48C1"/>
</linearGradient>
<linearGradient id="paint38_linear" x1="122.232" y1="82.2956" x2="76.0509" y2="146.696" gradientUnits="userSpaceOnUse">
<stop offset="0.04" stop-color="#9F19AB"/>
<stop offset="0.24" stop-color="#AE25B1"/>
<stop offset="0.65" stop-color="#D744BF"/>
<stop offset="1" stop-color="#FF63CE"/>
</linearGradient>
<radialGradient id="paint39_radial" cx="0" cy="0" r="1" gradientUnits="userSpaceOnUse" gradientTransform="translate(22904.8 7233.89) scale(1007.91 521.423)">
<stop stop-color="white"/>
<stop offset="1"/>
</radialGradient>
<linearGradient id="paint40_linear" x1="42.7074" y1="113.004" x2="67.5753" y2="113.004" gradientUnits="userSpaceOnUse">
<stop stop-color="#671AB9"/>
<stop offset="0.34" stop-color="#AD34F1"/>
<stop offset="1" stop-color="#5513AB"/>
</linearGradient>
<linearGradient id="paint41_linear" x1="25808.3" y1="19752.2" x2="35485.1" y2="19752.2" gradientUnits="userSpaceOnUse">
<stop stop-color="#671AB9"/>
<stop offset="0.34" stop-color="#AD34F1"/>
<stop offset="1" stop-color="#5513AB"/>
</linearGradient>
<linearGradient id="paint42_linear" x1="72.7119" y1="59.9756" x2="24.2944" y2="121.466" gradientUnits="userSpaceOnUse">
<stop stop-color="#5513AB"/>
<stop offset="1" stop-color="#BE3BFF"/>
</linearGradient>
<radialGradient id="paint43_radial" cx="0" cy="0" r="1" gradientUnits="userSpaceOnUse" gradientTransform="translate(28083.3 8965.46) scale(1894.86 944.749)">
<stop stop-color="white"/>
<stop offset="1"/>
</radialGradient>
<linearGradient id="paint44_linear" x1="21580.2" y1="4716.41" x2="24230.6" y2="4716.41" gradientUnits="userSpaceOnUse">
<stop stop-color="#FFBB96"/>
<stop offset="0.23" stop-color="#FFFBC9"/>
<stop offset="0.54" stop-color="#F9B673"/>
<stop offset="0.64" stop-color="#F9B876"/>
<stop offset="0.72" stop-color="#FABE81"/>
<stop offset="0.81" stop-color="#FCC993"/>
<stop offset="0.86" stop-color="#FED2A3"/>
<stop offset="0.97" stop-color="#FFC28C"/>
</linearGradient>
<linearGradient id="paint45_linear" x1="21580.2" y1="3556.21" x2="24230.6" y2="3556.21" gradientUnits="userSpaceOnUse">
<stop stop-color="#FFBB96"/>
<stop offset="0.23" stop-color="#FFFBC9"/>
<stop offset="0.54" stop-color="#F9B673"/>
<stop offset="0.64" stop-color="#F9B876"/>
<stop offset="0.72" stop-color="#FABE81"/>
<stop offset="0.81" stop-color="#FCC993"/>
<stop offset="0.86" stop-color="#FED2A3"/>
<stop offset="0.97" stop-color="#FFC28C"/>
</linearGradient>
<linearGradient id="paint46_linear" x1="95.1061" y1="96.2938" x2="95.1061" y2="96.2938" gradientUnits="userSpaceOnUse">
<stop stop-color="#FFBB96"/>
<stop offset="0.23" stop-color="#FFFBC9"/>
<stop offset="0.54" stop-color="#F9B673"/>
<stop offset="0.64" stop-color="#F9B876"/>
<stop offset="0.72" stop-color="#FABE81"/>
<stop offset="0.81" stop-color="#FCC993"/>
<stop offset="0.86" stop-color="#FED2A3"/>
<stop offset="0.97" stop-color="#FFC28C"/>
</linearGradient>
<linearGradient id="paint47_linear" x1="6151.45" y1="298.809" x2="4828.29" y2="2592.96" gradientUnits="userSpaceOnUse">
<stop offset="0.04" stop-color="#FFBA78"/>
<stop offset="0.4" stop-color="#FFC987"/>
<stop offset="1" stop-color="#FEECA8"/>
</linearGradient>
<radialGradient id="paint48_radial" cx="0" cy="0" r="1" gradientUnits="userSpaceOnUse" gradientTransform="translate(22331.2 3267.91) scale(1692.06 508.197)">
<stop stop-color="white"/>
<stop offset="1"/>
</radialGradient>
<linearGradient id="paint49_linear" x1="3564.01" y1="850.646" x2="2825.14" y2="2132.3" gradientUnits="userSpaceOnUse">
<stop offset="0.04" stop-color="#FFBA78"/>
<stop offset="0.4" stop-color="#FFC987"/>
<stop offset="1" stop-color="#FEECA8"/>
</linearGradient>
<radialGradient id="paint50_radial" cx="0" cy="0" r="1" gradientUnits="userSpaceOnUse" gradientTransform="translate(17501.5 2210.39) scale(556.551 170.171)">
<stop stop-color="white"/>
<stop offset="1"/>
</radialGradient>
<linearGradient id="paint51_linear" x1="18222" y1="2009.13" x2="17986.1" y2="2786.19" gradientUnits="userSpaceOnUse">
<stop stop-color="#FFBB96"/>
<stop offset="0.23" stop-color="#FFFBC9"/>
<stop offset="0.54" stop-color="#F9B673"/>
<stop offset="0.64" stop-color="#F9B876"/>
<stop offset="0.72" stop-color="#FABE81"/>
<stop offset="0.81" stop-color="#FCC993"/>
<stop offset="0.86" stop-color="#FED2A3"/>
<stop offset="0.97" stop-color="#FFC28C"/>
</linearGradient>
<radialGradient id="paint52_radial" cx="0" cy="0" r="1" gradientUnits="userSpaceOnUse" gradientTransform="translate(327454 -112727) scale(787.364 465.572)">
<stop stop-color="#F49587"/>
<stop offset="0.12" stop-color="#BD7368"/>
<stop offset="0.24" stop-color="#8B554D"/>
<stop offset="0.36" stop-color="#603B35"/>
<stop offset="0.48" stop-color="#3E2622"/>
<stop offset="0.61" stop-color="#231513"/>
<stop offset="0.74" stop-color="#0F0908"/>
<stop offset="0.86" stop-color="#040202"/>
<stop offset="1"/>
</radialGradient>
<radialGradient id="paint53_radial" cx="0" cy="0" r="1" gradientUnits="userSpaceOnUse" gradientTransform="translate(331825 -112032) scale(787.733 465.572)">
<stop stop-color="#F49587"/>
<stop offset="0.12" stop-color="#BD7368"/>
<stop offset="0.24" stop-color="#8B554D"/>
<stop offset="0.36" stop-color="#603B35"/>
<stop offset="0.48" stop-color="#3E2622"/>
<stop offset="0.61" stop-color="#231513"/>
<stop offset="0.74" stop-color="#0F0908"/>
<stop offset="0.86" stop-color="#040202"/>
<stop offset="1"/>
</radialGradient>
<linearGradient id="paint54_linear" x1="8384.42" y1="2502.54" x2="8757.91" y2="2502.54" gradientUnits="userSpaceOnUse">
<stop stop-color="#FFBB96"/>
<stop offset="0.23" stop-color="#FFFBC9"/>
<stop offset="0.54" stop-color="#F9B673"/>
<stop offset="0.64" stop-color="#F9B876"/>
<stop offset="0.72" stop-color="#FABE81"/>
<stop offset="0.81" stop-color="#FCC993"/>
<stop offset="0.86" stop-color="#FED2A3"/>
<stop offset="0.97" stop-color="#FFC28C"/>
</linearGradient>
<linearGradient id="paint55_linear" x1="8936.63" y1="2356.98" x2="8694.47" y2="2560.53" gradientUnits="userSpaceOnUse">
<stop offset="0.04" stop-color="#FFBA78"/>
<stop offset="0.4" stop-color="#FFC987"/>
<stop offset="1" stop-color="#FEECA8"/>
</linearGradient>
<radialGradient id="paint56_radial" cx="0" cy="0" r="1" gradientUnits="userSpaceOnUse" gradientTransform="translate(8315.01 2504.07) scale(334.2 216.982)">
<stop stop-color="#F49587"/>
<stop offset="0.12" stop-color="#BD7368"/>
<stop offset="0.24" stop-color="#8B554D"/>
<stop offset="0.36" stop-color="#603B35"/>
<stop offset="0.48" stop-color="#3E2622"/>
<stop offset="0.61" stop-color="#231513"/>
<stop offset="0.74" stop-color="#0F0908"/>
<stop offset="0.86" stop-color="#040202"/>
<stop offset="1"/>
</radialGradient>
<linearGradient id="paint57_linear" x1="21580.2" y1="3726.86" x2="24230.6" y2="3726.86" gradientUnits="userSpaceOnUse">
<stop stop-color="#FFBB96"/>
<stop offset="0.23" stop-color="#FFFBC9"/>
<stop offset="0.54" stop-color="#F9B673"/>
<stop offset="0.64" stop-color="#F9B876"/>
<stop offset="0.72" stop-color="#FABE81"/>
<stop offset="0.81" stop-color="#FCC993"/>
<stop offset="0.86" stop-color="#FED2A3"/>
<stop offset="0.97" stop-color="#FFC28C"/>
</linearGradient>
<linearGradient id="paint58_linear" x1="21580.2" y1="2812.34" x2="24230.6" y2="2812.34" gradientUnits="userSpaceOnUse">
<stop stop-color="#FFBB96"/>
<stop offset="0.23" stop-color="#FFFBC9"/>
<stop offset="0.54" stop-color="#F9B673"/>
<stop offset="0.64" stop-color="#F9B876"/>
<stop offset="0.72" stop-color="#FABE81"/>
<stop offset="0.81" stop-color="#FCC993"/>
<stop offset="0.86" stop-color="#FED2A3"/>
<stop offset="0.97" stop-color="#FFC28C"/>
</linearGradient>
<linearGradient id="paint59_linear" x1="95.1061" y1="54.742" x2="95.1061" y2="54.742" gradientUnits="userSpaceOnUse">
<stop stop-color="#FFBB96"/>
<stop offset="0.23" stop-color="#FFFBC9"/>
<stop offset="0.54" stop-color="#F9B673"/>
<stop offset="0.64" stop-color="#F9B876"/>
<stop offset="0.72" stop-color="#FABE81"/>
<stop offset="0.81" stop-color="#FCC993"/>
<stop offset="0.86" stop-color="#FED2A3"/>
<stop offset="0.97" stop-color="#FFC28C"/>
</linearGradient>
<linearGradient id="paint60_linear" x1="6151.45" y1="-998.081" x2="4828.29" y2="1296.07" gradientUnits="userSpaceOnUse">
<stop offset="0.04" stop-color="#FFBA78"/>
<stop offset="0.4" stop-color="#FFC987"/>
<stop offset="1" stop-color="#FEECA8"/>
</linearGradient>
<radialGradient id="paint61_radial" cx="0" cy="0" r="1" gradientUnits="userSpaceOnUse" gradientTransform="translate(22331.2 2577.27) scale(1692.06 508.197)">
<stop stop-color="white"/>
<stop offset="1"/>
</radialGradient>
<linearGradient id="paint62_linear" x1="3564.01" y1="-128.49" x2="2825.14" y2="1153.17" gradientUnits="userSpaceOnUse">
<stop offset="0.04" stop-color="#FFBA78"/>
<stop offset="0.4" stop-color="#FFC987"/>
<stop offset="1" stop-color="#FEECA8"/>
</linearGradient>
<radialGradient id="paint63_radial" cx="0" cy="0" r="1" gradientUnits="userSpaceOnUse" gradientTransform="translate(17501.5 1675.14) scale(556.551 170.171)">
<stop stop-color="white"/>
<stop offset="1"/>
</radialGradient>
<linearGradient id="paint64_linear" x1="18222" y1="1474.29" x2="17986.1" y2="2251.34" gradientUnits="userSpaceOnUse">
<stop stop-color="#FFBB96"/>
<stop offset="0.23" stop-color="#FFFBC9"/>
<stop offset="0.54" stop-color="#F9B673"/>
<stop offset="0.64" stop-color="#F9B876"/>
<stop offset="0.72" stop-color="#FABE81"/>
<stop offset="0.81" stop-color="#FCC993"/>
<stop offset="0.86" stop-color="#FED2A3"/>
<stop offset="0.97" stop-color="#FFC28C"/>
</linearGradient>
<radialGradient id="paint65_radial" cx="0" cy="0" r="1" gradientUnits="userSpaceOnUse" gradientTransform="translate(333083 -113328) scale(787.364 465.572)">
<stop stop-color="#F49587"/>
<stop offset="0.12" stop-color="#BD7368"/>
<stop offset="0.24" stop-color="#8B554D"/>
<stop offset="0.36" stop-color="#603B35"/>
<stop offset="0.48" stop-color="#3E2622"/>
<stop offset="0.61" stop-color="#231513"/>
<stop offset="0.74" stop-color="#0F0908"/>
<stop offset="0.86" stop-color="#040202"/>
<stop offset="1"/>
</radialGradient>
<linearGradient id="paint66_linear" x1="8384.25" y1="1939.26" x2="8757.73" y2="1939.26" gradientUnits="userSpaceOnUse">
<stop stop-color="#FFBB96"/>
<stop offset="0.23" stop-color="#FFFBC9"/>
<stop offset="0.54" stop-color="#F9B673"/>
<stop offset="0.64" stop-color="#F9B876"/>
<stop offset="0.72" stop-color="#FABE81"/>
<stop offset="0.81" stop-color="#FCC993"/>
<stop offset="0.86" stop-color="#FED2A3"/>
<stop offset="0.97" stop-color="#FFC28C"/>
</linearGradient>
<linearGradient id="paint67_linear" x1="8936.63" y1="1793.44" x2="8694.47" y2="1996.99" gradientUnits="userSpaceOnUse">
<stop offset="0.04" stop-color="#FFBA78"/>
<stop offset="0.4" stop-color="#FFC987"/>
<stop offset="1" stop-color="#FEECA8"/>
</linearGradient>
<radialGradient id="paint68_radial" cx="0" cy="0" r="1" gradientUnits="userSpaceOnUse" gradientTransform="translate(8315.01 1940.53) scale(334.2 216.982)">
<stop stop-color="#F49587"/>
<stop offset="0.12" stop-color="#BD7368"/>
<stop offset="0.24" stop-color="#8B554D"/>
<stop offset="0.36" stop-color="#603B35"/>
<stop offset="0.48" stop-color="#3E2622"/>
<stop offset="0.61" stop-color="#231513"/>
<stop offset="0.74" stop-color="#0F0908"/>
<stop offset="0.86" stop-color="#040202"/>
<stop offset="1"/>
</radialGradient>
<radialGradient id="paint69_radial" cx="0" cy="0" r="1" gradientUnits="userSpaceOnUse" gradientTransform="translate(317540 -68012.8) scale(635.05 263.484)">
<stop offset="0.19" stop-color="#785C5D"/>
<stop offset="1" stop-color="white"/>
</radialGradient>
<clipPath id="clip0">
<rect width="135" height="161" fill="white"/>
</clipPath>
</defs>
</svg>
